<svg xmlns="http://www.w3.org/2000/svg" xmlns:svg="http://www.w3.org/2000/svg" id="svg723" width="481.1" height="325.38" version="1.1" viewBox="0 0 481.1 325.38"><metadata id="metadata727"/><defs id="defs4"><style id="style2">.cls-2{fill:#9bc331}.cls-3{fill:#ff0005}.cls-4{fill:#a800fa}</style></defs><title id="title6">Artboard 81</title><g id="Stars" transform="translate(0,3.268009e-5)"><path id="path36" d="m 62.4,0 h 9.47 a 1.54,1.54 0 0 1 1.54,1.54 V 11 a 1.53,1.53 0 0 1 -1.53,1.53 H 62.4 A 1.53,1.53 0 0 1 60.87,11 V 1.53 A 1.53,1.53 0 0 1 62.4,0 Z" class="cls-2" style="fill:#9bc331"/><path id="path38" d="m 77.62,0 h 9.47 a 1.54,1.54 0 0 1 1.54,1.54 V 11 A 1.53,1.53 0 0 1 87.1,12.53 H 77.62 A 1.53,1.53 0 0 1 76.09,11 V 1.53 A 1.53,1.53 0 0 1 77.62,0 Z" class="cls-2" style="fill:#9bc331"/><path id="path40" d="m 92.84,0 h 9.47 a 1.54,1.54 0 0 1 1.54,1.54 V 11 a 1.53,1.53 0 0 1 -1.53,1.53 H 92.84 A 1.53,1.53 0 0 1 91.3,11 V 1.53 A 1.53,1.53 0 0 1 92.84,0 Z" class="cls-2" style="fill:#9bc331"/><path id="path42" d="m 108.06,0 h 9.47 a 1.54,1.54 0 0 1 1.54,1.54 V 11 a 1.53,1.53 0 0 1 -1.53,1.53 h -9.47 A 1.54,1.54 0 0 1 106.52,11 V 1.53 A 1.53,1.53 0 0 1 108.06,0 Z" class="cls-2" style="fill:#9bc331"/><path id="path44" d="m 245,0 h 9.47 A 1.54,1.54 0 0 1 256,1.54 V 11 a 1.53,1.53 0 0 1 -1.53,1.53 H 245 A 1.54,1.54 0 0 1 243.48,11 V 1.53 A 1.53,1.53 0 0 1 245,0 Z" class="cls-2" style="fill:#9bc331"/><path id="path46" d="m 260.23,0 h 9.47 a 1.54,1.54 0 0 1 1.54,1.54 V 11 a 1.53,1.53 0 0 1 -1.53,1.53 h -9.47 A 1.53,1.53 0 0 1 258.69,11 V 1.53 A 1.53,1.53 0 0 1 260.23,0 Z" class="cls-2" style="fill:#9bc331"/><path id="path48" d="m 275.45,0 h 9.47 a 1.54,1.54 0 0 1 1.54,1.54 V 11 a 1.53,1.53 0 0 1 -1.53,1.53 h -9.47 A 1.54,1.54 0 0 1 273.91,11 V 1.53 A 1.53,1.53 0 0 1 275.45,0 Z" class="cls-2" style="fill:#9bc331"/><path id="path50" d="m 290.66,0 h 9.47 a 1.54,1.54 0 0 1 1.54,1.54 V 11 a 1.53,1.53 0 0 1 -1.53,1.53 h -9.47 A 1.53,1.53 0 0 1 289.13,11 V 1.53 A 1.53,1.53 0 0 1 290.66,0 Z" class="cls-2" style="fill:#9bc331"/><path id="path52" d="m 305.88,0 h 9.47 a 1.54,1.54 0 0 1 1.54,1.54 V 11 a 1.53,1.53 0 0 1 -1.53,1.53 h -9.47 A 1.53,1.53 0 0 1 304.35,11 V 1.53 A 1.53,1.53 0 0 1 305.88,0 Z" class="cls-2" style="fill:#9bc331"/><path id="path54" d="m 321.1,0 h 9.47 a 1.54,1.54 0 0 1 1.54,1.54 V 11 a 1.53,1.53 0 0 1 -1.53,1.53 H 321.1 A 1.53,1.53 0 0 1 319.56,11 V 1.53 A 1.53,1.53 0 0 1 321.1,0 Z" class="cls-2" style="fill:#9bc331"/><path id="path56" d="m 336.32,0 h 9.47 a 1.54,1.54 0 0 1 1.54,1.54 V 11 a 1.53,1.53 0 0 1 -1.53,1.53 h -9.47 A 1.54,1.54 0 0 1 334.78,11 V 1.53 A 1.53,1.53 0 0 1 336.32,0 Z" class="cls-3" style="fill:#ff0005"/><path id="path58" d="M 351.53,0 H 361 a 1.54,1.54 0 0 1 1.54,1.54 V 11 A 1.53,1.53 0 0 1 361,12.53 h -9.47 A 1.54,1.54 0 0 1 350,11 V 1.53 A 1.53,1.53 0 0 1 351.53,0 Z" class="cls-2" style="fill:#9bc331"/><path id="path60" d="m 47.19,14.9 h 9.47 a 1.53,1.53 0 0 1 1.53,1.53 v 9.47 a 1.54,1.54 0 0 1 -1.54,1.54 h -9.46 a 1.53,1.53 0 0 1 -1.53,-1.53 v -9.48 a 1.53,1.53 0 0 1 1.53,-1.53 z" class="cls-2" style="fill:#9bc331"/><path id="path62" d="m 62.4,14.9 h 9.47 a 1.54,1.54 0 0 1 1.54,1.54 v 9.46 a 1.53,1.53 0 0 1 -1.53,1.53 H 62.4 A 1.53,1.53 0 0 1 60.87,25.9 V 16.43 A 1.53,1.53 0 0 1 62.4,14.9 Z" class="cls-2" style="fill:#9bc331"/><path id="path64" d="m 77.62,14.9 h 9.47 a 1.53,1.53 0 0 1 1.53,1.53 v 9.47 a 1.54,1.54 0 0 1 -1.54,1.54 h -9.46 a 1.53,1.53 0 0 1 -1.53,-1.53 v -9.48 a 1.53,1.53 0 0 1 1.53,-1.53 z" class="cls-2" style="fill:#9bc331"/><path id="path66" d="m 92.84,14.9 h 9.47 a 1.53,1.53 0 0 1 1.53,1.53 v 9.47 a 1.54,1.54 0 0 1 -1.54,1.54 H 92.84 A 1.53,1.53 0 0 1 91.3,25.9 v -9.47 a 1.53,1.53 0 0 1 1.53,-1.53 z" class="cls-2" style="fill:#9bc331"/><path id="path68" d="m 108.06,14.9 h 9.47 a 1.53,1.53 0 0 1 1.53,1.53 v 9.47 a 1.53,1.53 0 0 1 -1.53,1.53 h -9.47 a 1.54,1.54 0 0 1 -1.54,-1.54 v -9.46 a 1.53,1.53 0 0 1 1.53,-1.53 z" class="cls-2" style="fill:#9bc331"/><path id="path70" d="m 229.79,14.9 h 9.47 a 1.53,1.53 0 0 1 1.53,1.53 v 9.47 a 1.54,1.54 0 0 1 -1.54,1.54 h -9.47 a 1.53,1.53 0 0 1 -1.53,-1.53 v -9.48 a 1.53,1.53 0 0 1 1.54,-1.53 z" class="cls-2" style="fill:#9bc331"/><path id="path72" d="m 245,14.9 h 9.47 a 1.54,1.54 0 0 1 1.53,1.53 v 9.47 a 1.53,1.53 0 0 1 -1.53,1.53 H 245 a 1.54,1.54 0 0 1 -1.54,-1.54 V 16.43 A 1.54,1.54 0 0 1 245,14.9 Z" class="cls-2" style="fill:#9bc331"/><path id="path74" d="m 260.23,14.9 h 9.47 a 1.54,1.54 0 0 1 1.54,1.54 v 9.46 a 1.53,1.53 0 0 1 -1.53,1.53 h -9.47 a 1.53,1.53 0 0 1 -1.53,-1.53 v -9.47 a 1.53,1.53 0 0 1 1.52,-1.53 z" class="cls-2" style="fill:#9bc331"/><path id="path76" d="m 275.45,14.9 h 9.47 a 1.54,1.54 0 0 1 1.54,1.54 v 9.46 a 1.53,1.53 0 0 1 -1.53,1.53 h -9.47 a 1.53,1.53 0 0 1 -1.53,-1.53 v -9.47 a 1.53,1.53 0 0 1 1.53,-1.53 z" class="cls-2" style="fill:#9bc331"/><rect id="rect78" width="12.54" height="12.53" x="289.13" y="14.9" class="cls-2" rx="1.53" style="fill:#9bc331"/><path id="path80" d="m 305.88,14.9 h 9.47 a 1.54,1.54 0 0 1 1.54,1.54 v 9.46 a 1.54,1.54 0 0 1 -1.54,1.54 h -9.47 a 1.53,1.53 0 0 1 -1.53,-1.53 v -9.48 a 1.53,1.53 0 0 1 1.53,-1.53 z" class="cls-2" style="fill:#9bc331"/><path id="path82" d="m 321.1,14.9 h 9.47 a 1.54,1.54 0 0 1 1.54,1.54 v 9.46 a 1.53,1.53 0 0 1 -1.53,1.53 h -9.48 a 1.53,1.53 0 0 1 -1.53,-1.53 v -9.47 a 1.53,1.53 0 0 1 1.53,-1.53 z" class="cls-3" style="fill:#ff0005"/><path id="path84" d="m 336.32,14.9 h 9.47 a 1.54,1.54 0 0 1 1.54,1.54 v 9.46 a 1.54,1.54 0 0 1 -1.54,1.54 h -9.47 a 1.54,1.54 0 0 1 -1.54,-1.54 v -9.47 a 1.53,1.53 0 0 1 1.54,-1.53 z" class="cls-2" style="fill:#9bc331"/><path id="path86" d="m 366.79,14.9 h 9.47 a 1.53,1.53 0 0 1 1.53,1.53 v 9.47 a 1.54,1.54 0 0 1 -1.54,1.54 h -9.47 a 1.53,1.53 0 0 1 -1.53,-1.53 v -9.48 a 1.54,1.54 0 0 1 1.54,-1.53 z" class="cls-4" style="fill:#a800fa"/><path id="path88" d="m 395.47,14.9 h 9.47 a 1.54,1.54 0 0 1 1.54,1.54 v 9.46 a 1.53,1.53 0 0 1 -1.53,1.53 h -9.47 a 1.53,1.53 0 0 1 -1.53,-1.53 v -9.47 a 1.53,1.53 0 0 1 1.52,-1.53 z" class="cls-4" style="fill:#a800fa"/><path id="path90" d="m 32,29.8 h 9.47 A 1.54,1.54 0 0 1 43,31.33 v 9.47 a 1.53,1.53 0 0 1 -1.53,1.53 H 32 A 1.53,1.53 0 0 1 30.47,40.8 V 31.33 A 1.53,1.53 0 0 1 32,29.8 Z" class="cls-2" style="fill:#9bc331"/><path id="path92" d="m 47.19,29.8 h 9.47 a 1.54,1.54 0 0 1 1.54,1.54 v 9.46 a 1.53,1.53 0 0 1 -1.53,1.53 H 47.19 A 1.53,1.53 0 0 1 45.66,40.8 v -9.47 a 1.53,1.53 0 0 1 1.53,-1.53 z" class="cls-2" style="fill:#9bc331"/><path id="path94" d="m 62.4,29.8 h 9.47 a 1.54,1.54 0 0 1 1.54,1.54 v 9.46 a 1.53,1.53 0 0 1 -1.53,1.53 H 62.4 A 1.53,1.53 0 0 1 60.87,40.8 V 31.33 A 1.53,1.53 0 0 1 62.4,29.8 Z" class="cls-2" style="fill:#9bc331"/><path id="path96" d="m 77.62,29.8 h 9.47 a 1.54,1.54 0 0 1 1.54,1.54 V 40.8 A 1.53,1.53 0 0 1 87.1,42.33 H 77.62 A 1.53,1.53 0 0 1 76.09,40.8 v -9.47 a 1.53,1.53 0 0 1 1.53,-1.53 z" class="cls-2" style="fill:#9bc331"/><path id="path98" d="m 92.84,29.8 h 9.47 a 1.54,1.54 0 0 1 1.54,1.54 v 9.46 a 1.53,1.53 0 0 1 -1.53,1.53 H 92.84 A 1.53,1.53 0 0 1 91.3,40.8 v -9.47 a 1.53,1.53 0 0 1 1.53,-1.53 z" class="cls-2" style="fill:#9bc331"/><path id="path100" d="m 108.06,29.8 h 9.47 a 1.53,1.53 0 0 1 1.53,1.53 v 9.47 a 1.53,1.53 0 0 1 -1.53,1.53 h -9.47 a 1.53,1.53 0 0 1 -1.53,-1.53 v -9.47 a 1.54,1.54 0 0 1 1.54,-1.54 z" class="cls-2" style="fill:#9bc331"/><path id="path102" d="M 214.58,29.8 H 224 a 1.54,1.54 0 0 1 1.54,1.54 V 40.8 A 1.53,1.53 0 0 1 224,42.33 h -9.47 A 1.53,1.53 0 0 1 213,40.8 v -9.47 a 1.53,1.53 0 0 1 1.53,-1.53 z" class="cls-2" style="fill:#9bc331"/><path id="path104" d="m 229.79,29.8 h 9.47 a 1.54,1.54 0 0 1 1.54,1.54 v 9.46 a 1.53,1.53 0 0 1 -1.53,1.53 h -9.47 a 1.53,1.53 0 0 1 -1.53,-1.53 v -9.47 a 1.53,1.53 0 0 1 1.53,-1.53 z" class="cls-2" style="fill:#9bc331"/><path id="path106" d="m 245,29.8 h 9.47 a 1.53,1.53 0 0 1 1.53,1.53 v 9.47 a 1.53,1.53 0 0 1 -1.53,1.53 H 245 a 1.54,1.54 0 0 1 -1.54,-1.54 V 31.33 A 1.54,1.54 0 0 1 245,29.8 Z" class="cls-2" style="fill:#9bc331"/><path id="path108" d="m 260.23,29.8 h 9.47 a 1.54,1.54 0 0 1 1.54,1.54 v 9.46 a 1.53,1.53 0 0 1 -1.53,1.53 h -9.47 a 1.53,1.53 0 0 1 -1.53,-1.53 v -9.47 a 1.53,1.53 0 0 1 1.53,-1.53 z" class="cls-2" style="fill:#9bc331"/><path id="path110" d="m 275.45,29.8 h 9.47 a 1.54,1.54 0 0 1 1.54,1.54 v 9.46 a 1.53,1.53 0 0 1 -1.53,1.53 h -9.47 a 1.54,1.54 0 0 1 -1.54,-1.54 v -9.46 a 1.54,1.54 0 0 1 1.54,-1.54 z" class="cls-2" style="fill:#9bc331"/><path id="path112" d="m 290.66,29.8 h 9.47 a 1.54,1.54 0 0 1 1.54,1.54 v 9.46 a 1.53,1.53 0 0 1 -1.53,1.53 h -9.47 a 1.53,1.53 0 0 1 -1.53,-1.53 v -9.47 a 1.53,1.53 0 0 1 1.53,-1.53 z" class="cls-2" style="fill:#9bc331"/><path id="path114" d="m 305.88,29.8 h 9.47 a 1.53,1.53 0 0 1 1.53,1.53 v 9.46 a 1.54,1.54 0 0 1 -1.54,1.54 h -9.47 a 1.53,1.53 0 0 1 -1.53,-1.53 v -9.47 a 1.53,1.53 0 0 1 1.53,-1.53 z" class="cls-3" style="fill:#ff0005"/><path id="path116" d="m 321.1,29.8 h 9.47 a 1.54,1.54 0 0 1 1.54,1.54 v 9.46 a 1.53,1.53 0 0 1 -1.53,1.53 h -9.48 a 1.53,1.53 0 0 1 -1.53,-1.53 v -9.47 a 1.53,1.53 0 0 1 1.53,-1.53 z" class="cls-2" style="fill:#9bc331"/><path id="path118" d="m 336.32,29.8 h 9.47 a 1.54,1.54 0 0 1 1.54,1.54 v 9.46 a 1.53,1.53 0 0 1 -1.53,1.53 h -9.47 A 1.53,1.53 0 0 1 334.8,40.8 v -9.47 a 1.53,1.53 0 0 1 1.52,-1.53 z" class="cls-4" style="fill:#a800fa"/><path id="path120" d="M 351.53,29.8 H 361 a 1.54,1.54 0 0 1 1.54,1.54 V 40.8 A 1.53,1.53 0 0 1 361,42.33 h -9.47 A 1.54,1.54 0 0 1 350,40.8 v -9.47 a 1.53,1.53 0 0 1 1.53,-1.53 z" class="cls-3" style="fill:#ff0005"/><path id="path122" d="m 366.75,29.8 h 9.47 a 1.54,1.54 0 0 1 1.54,1.54 v 9.46 a 1.53,1.53 0 0 1 -1.53,1.53 h -9.47 a 1.53,1.53 0 0 1 -1.53,-1.53 v -9.47 a 1.53,1.53 0 0 1 1.53,-1.53 z" class="cls-4" style="fill:#a800fa"/><path id="path124" d="m 382,29.8 h 9.47 a 1.54,1.54 0 0 1 1.53,1.53 v 9.47 a 1.53,1.53 0 0 1 -1.53,1.53 H 382 A 1.53,1.53 0 0 1 380.47,40.8 V 31.33 A 1.53,1.53 0 0 1 382,29.8 Z" class="cls-4" style="fill:#a800fa"/><path id="path126" d="m 16.75,44.69 h 9.47 a 1.54,1.54 0 0 1 1.54,1.54 v 9.46 a 1.53,1.53 0 0 1 -1.53,1.53 h -9.48 a 1.53,1.53 0 0 1 -1.53,-1.53 v -9.46 a 1.53,1.53 0 0 1 1.53,-1.54 z" class="cls-2" style="fill:#9bc331"/><path id="path128" d="m 32,44.69 h 9.47 A 1.54,1.54 0 0 1 43,46.23 v 9.46 a 1.53,1.53 0 0 1 -1.53,1.53 H 32 A 1.53,1.53 0 0 1 30.47,55.69 V 46.23 A 1.53,1.53 0 0 1 32,44.69 Z" class="cls-2" style="fill:#9bc331"/><path id="path130" d="m 47.19,44.69 h 9.47 a 1.54,1.54 0 0 1 1.54,1.54 v 9.46 a 1.53,1.53 0 0 1 -1.53,1.53 h -9.48 a 1.53,1.53 0 0 1 -1.53,-1.53 v -9.46 a 1.53,1.53 0 0 1 1.53,-1.54 z" class="cls-2" style="fill:#9bc331"/><path id="path132" d="m 62.4,44.69 h 9.47 a 1.54,1.54 0 0 1 1.54,1.54 v 9.46 a 1.53,1.53 0 0 1 -1.53,1.53 H 62.4 A 1.53,1.53 0 0 1 60.87,55.69 V 46.23 A 1.53,1.53 0 0 1 62.4,44.7 Z" class="cls-2" style="fill:#9bc331"/><path id="path134" d="m 77.62,44.69 h 9.47 a 1.53,1.53 0 0 1 1.53,1.53 v 9.46 a 1.54,1.54 0 0 1 -1.54,1.54 h -9.46 a 1.53,1.53 0 0 1 -1.53,-1.53 v -9.46 a 1.53,1.53 0 0 1 1.53,-1.54 z" class="cls-2" style="fill:#9bc331"/><rect id="rect136" width="12.54" height="12.53" x="91.3" y="44.69" class="cls-2" rx="1.53" style="fill:#9bc331"/><path id="path138" d="m 108.06,44.69 h 9.47 a 1.54,1.54 0 0 1 1.54,1.54 v 9.46 a 1.53,1.53 0 0 1 -1.53,1.53 h -9.47 a 1.54,1.54 0 0 1 -1.54,-1.54 v -9.45 a 1.53,1.53 0 0 1 1.53,-1.54 z" class="cls-2" style="fill:#9bc331"/><path id="path140" d="m 199.36,44.69 h 9.47 a 1.54,1.54 0 0 1 1.54,1.54 v 9.46 a 1.53,1.53 0 0 1 -1.53,1.53 h -9.47 a 1.53,1.53 0 0 1 -1.53,-1.53 v -9.46 a 1.53,1.53 0 0 1 1.52,-1.54 z" class="cls-2" style="fill:#9bc331"/><path id="path142" d="M 214.58,44.69 H 224 a 1.54,1.54 0 0 1 1.54,1.54 v 9.46 A 1.53,1.53 0 0 1 224,57.23 h -9.47 A 1.53,1.53 0 0 1 213,55.69 v -9.46 a 1.53,1.53 0 0 1 1.58,-1.54 z" class="cls-2" style="fill:#9bc331"/><rect id="rect144" width="12.54" height="12.53" x="228.26" y="44.69" class="cls-2" rx="1.53" style="fill:#9bc331"/><path id="path146" d="m 245,44.69 h 9.47 a 1.54,1.54 0 0 1 1.53,1.54 v 9.46 a 1.53,1.53 0 0 1 -1.53,1.53 H 245 a 1.54,1.54 0 0 1 -1.54,-1.54 V 46.23 A 1.53,1.53 0 0 1 245,44.69 Z" class="cls-2" style="fill:#9bc331"/><path id="path148" d="m 260.23,44.69 h 9.47 a 1.54,1.54 0 0 1 1.54,1.54 v 9.46 a 1.53,1.53 0 0 1 -1.53,1.53 h -9.47 a 1.53,1.53 0 0 1 -1.53,-1.53 v -9.46 a 1.53,1.53 0 0 1 1.52,-1.54 z" class="cls-2" style="fill:#9bc331"/><path id="path150" d="m 275.45,44.69 h 9.47 a 1.54,1.54 0 0 1 1.54,1.54 v 9.46 a 1.53,1.53 0 0 1 -1.53,1.53 h -9.47 a 1.54,1.54 0 0 1 -1.54,-1.54 v -9.45 a 1.54,1.54 0 0 1 1.53,-1.54 z" class="cls-2" style="fill:#9bc331"/><path id="path152" d="m 290.66,44.69 h 9.47 a 1.54,1.54 0 0 1 1.54,1.54 v 9.46 a 1.53,1.53 0 0 1 -1.53,1.53 h -9.47 a 1.53,1.53 0 0 1 -1.53,-1.53 v -9.46 a 1.53,1.53 0 0 1 1.52,-1.54 z" class="cls-2" style="fill:#9bc331"/><path id="path154" d="m 305.88,44.69 h 9.47 a 1.54,1.54 0 0 1 1.54,1.54 v 9.46 a 1.53,1.53 0 0 1 -1.53,1.53 h -9.47 a 1.53,1.53 0 0 1 -1.53,-1.53 v -9.46 a 1.53,1.53 0 0 1 1.52,-1.54 z" class="cls-2" style="fill:#9bc331"/><path id="path156" d="m 321.1,44.69 h 9.47 a 1.54,1.54 0 0 1 1.54,1.54 v 9.46 a 1.53,1.53 0 0 1 -1.53,1.53 h -9.48 a 1.53,1.53 0 0 1 -1.53,-1.53 v -9.46 a 1.53,1.53 0 0 1 1.53,-1.54 z" class="cls-3" style="fill:#ff0005"/><path id="path158" d="m 336.32,44.69 h 9.47 a 1.54,1.54 0 0 1 1.54,1.54 v 9.46 a 1.53,1.53 0 0 1 -1.53,1.53 h -9.47 a 1.54,1.54 0 0 1 -1.54,-1.54 v -9.45 a 1.53,1.53 0 0 1 1.53,-1.54 z" class="cls-3" style="fill:#ff0005"/><path id="path160" d="M 351.53,44.69 H 361 a 1.53,1.53 0 0 1 1.53,1.53 v 9.46 A 1.54,1.54 0 0 1 361,57.23 h -9.47 A 1.54,1.54 0 0 1 350,55.69 v -9.46 a 1.53,1.53 0 0 1 1.53,-1.54 z" class="cls-2" style="fill:#9bc331"/><path id="path162" d="m 366.75,44.69 h 9.47 a 1.54,1.54 0 0 1 1.54,1.54 v 9.46 a 1.53,1.53 0 0 1 -1.53,1.53 h -9.47 a 1.53,1.53 0 0 1 -1.53,-1.53 v -9.46 a 1.53,1.53 0 0 1 1.52,-1.54 z" class="cls-2" style="fill:#9bc331"/><path id="path164" d="m 382,44.69 h 9.47 a 1.53,1.53 0 0 1 1.53,1.54 v 9.46 a 1.54,1.54 0 0 1 -1.54,1.54 H 382 A 1.53,1.53 0 0 1 380.47,55.7 V 46.23 A 1.53,1.53 0 0 1 382,44.69 Z" class="cls-4" style="fill:#a800fa"/><path id="path166" d="m 424.17,44.69 h 9.47 a 1.54,1.54 0 0 1 1.54,1.54 v 9.46 a 1.53,1.53 0 0 1 -1.53,1.53 h -9.47 a 1.53,1.53 0 0 1 -1.53,-1.53 v -9.46 a 1.53,1.53 0 0 1 1.52,-1.54 z" class="cls-4" style="fill:#a800fa"/><path id="path168" d="M 1.53,59.59 H 11 a 1.54,1.54 0 0 1 1.54,1.54 v 9.46 A 1.53,1.53 0 0 1 11,72.13 H 1.54 A 1.54,1.54 0 0 1 0,70.59 V 61.13 A 1.53,1.53 0 0 1 1.53,59.6 Z" class="cls-2" style="fill:#9bc331"/><path id="path170" d="m 16.75,59.59 h 9.47 a 1.54,1.54 0 0 1 1.54,1.54 v 9.46 a 1.53,1.53 0 0 1 -1.53,1.53 h -9.48 a 1.53,1.53 0 0 1 -1.53,-1.53 v -9.46 a 1.53,1.53 0 0 1 1.53,-1.53 z" class="cls-2" style="fill:#9bc331"/><path id="path172" d="m 32,59.59 h 9.47 A 1.54,1.54 0 0 1 43,61.13 v 9.46 a 1.53,1.53 0 0 1 -1.53,1.53 H 32 A 1.53,1.53 0 0 1 30.47,70.59 V 61.13 A 1.53,1.53 0 0 1 32,59.59 Z" class="cls-2" style="fill:#9bc331"/><path id="path174" d="m 47.19,59.59 h 9.47 a 1.54,1.54 0 0 1 1.54,1.54 v 9.46 a 1.53,1.53 0 0 1 -1.53,1.53 h -9.48 a 1.53,1.53 0 0 1 -1.53,-1.53 v -9.46 a 1.53,1.53 0 0 1 1.53,-1.54 z" class="cls-2" style="fill:#9bc331"/><path id="path176" d="m 62.4,59.59 h 9.47 a 1.54,1.54 0 0 1 1.54,1.54 v 9.46 a 1.53,1.53 0 0 1 -1.53,1.53 H 62.4 a 1.53,1.53 0 0 1 -1.53,-1.53 v -9.46 a 1.53,1.53 0 0 1 1.53,-1.54 z" class="cls-2" style="fill:#9bc331"/><path id="path178" d="m 77.62,59.59 h 9.47 a 1.54,1.54 0 0 1 1.54,1.54 v 9.46 a 1.53,1.53 0 0 1 -1.53,1.53 h -9.48 a 1.53,1.53 0 0 1 -1.53,-1.53 v -9.46 a 1.53,1.53 0 0 1 1.53,-1.54 z" class="cls-2" style="fill:#9bc331"/><path id="path180" d="m 92.84,59.59 h 9.47 a 1.54,1.54 0 0 1 1.54,1.54 v 9.46 a 1.54,1.54 0 0 1 -1.54,1.54 H 92.84 A 1.53,1.53 0 0 1 91.31,70.6 v -9.47 a 1.53,1.53 0 0 1 1.53,-1.54 z" class="cls-2" style="fill:#9bc331"/><path id="path182" d="m 108.06,59.59 h 9.47 a 1.54,1.54 0 0 1 1.54,1.54 v 9.46 a 1.53,1.53 0 0 1 -1.53,1.53 h -9.47 a 1.53,1.53 0 0 1 -1.53,-1.53 v -9.46 a 1.54,1.54 0 0 1 1.52,-1.54 z" class="cls-2" style="fill:#9bc331"/><path id="path184" d="m 199.36,59.59 h 9.47 a 1.53,1.53 0 0 1 1.53,1.53 v 9.46 a 1.54,1.54 0 0 1 -1.54,1.54 h -9.47 a 1.53,1.53 0 0 1 -1.53,-1.53 v -9.46 a 1.53,1.53 0 0 1 1.54,-1.54 z" class="cls-2" style="fill:#9bc331"/><path id="path186" d="M 214.58,59.59 H 224 a 1.54,1.54 0 0 1 1.54,1.54 v 9.46 A 1.53,1.53 0 0 1 224,72.13 h -9.47 A 1.53,1.53 0 0 1 213,70.59 v -9.46 a 1.53,1.53 0 0 1 1.58,-1.54 z" class="cls-2" style="fill:#9bc331"/><path id="path188" d="m 229.79,59.59 h 9.47 a 1.54,1.54 0 0 1 1.54,1.54 v 9.46 a 1.53,1.53 0 0 1 -1.53,1.53 h -9.47 a 1.53,1.53 0 0 1 -1.53,-1.53 v -9.46 a 1.53,1.53 0 0 1 1.52,-1.54 z" class="cls-2" style="fill:#9bc331"/><path id="path190" d="m 245,59.59 h 9.47 a 1.54,1.54 0 0 1 1.53,1.54 v 9.46 a 1.53,1.53 0 0 1 -1.53,1.53 H 245 a 1.54,1.54 0 0 1 -1.54,-1.54 V 61.13 A 1.53,1.53 0 0 1 245,59.59 Z" class="cls-2" style="fill:#9bc331"/><path id="path192" d="m 260.23,59.59 h 9.47 a 1.54,1.54 0 0 1 1.54,1.54 v 9.46 a 1.54,1.54 0 0 1 -1.54,1.54 h -9.47 A 1.53,1.53 0 0 1 258.7,70.6 v -9.47 a 1.53,1.53 0 0 1 1.53,-1.54 z" class="cls-2" style="fill:#9bc331"/><path id="path194" d="m 336.32,59.59 h 9.47 a 1.54,1.54 0 0 1 1.54,1.54 v 9.46 a 1.53,1.53 0 0 1 -1.53,1.53 h -9.47 a 1.54,1.54 0 0 1 -1.54,-1.54 v -9.45 a 1.53,1.53 0 0 1 1.53,-1.54 z" class="cls-3" style="fill:#ff0005"/><path id="path196" d="M 351.53,59.59 H 361 a 1.54,1.54 0 0 1 1.54,1.54 v 9.46 A 1.53,1.53 0 0 1 361,72.13 h -9.47 A 1.53,1.53 0 0 1 350,70.59 v -9.46 a 1.53,1.53 0 0 1 1.53,-1.54 z" class="cls-2" style="fill:#9bc331"/><path id="path198" d="m 366.75,59.59 h 9.47 a 1.54,1.54 0 0 1 1.54,1.54 v 9.46 a 1.53,1.53 0 0 1 -1.53,1.53 h -9.47 a 1.53,1.53 0 0 1 -1.53,-1.53 v -9.46 a 1.53,1.53 0 0 1 1.53,-1.53 z" class="cls-4" style="fill:#a800fa"/><path id="path200" d="m 382,59.59 h 9.47 a 1.54,1.54 0 0 1 1.53,1.54 v 9.46 a 1.53,1.53 0 0 1 -1.53,1.53 H 382 a 1.53,1.53 0 0 1 -1.53,-1.53 V 61.13 A 1.53,1.53 0 0 1 382,59.59 Z" class="cls-2" style="fill:#9bc331"/><path id="path202" d="m 397.18,59.59 h 9.47 a 1.54,1.54 0 0 1 1.54,1.54 v 9.46 a 1.54,1.54 0 0 1 -1.54,1.54 h -9.47 a 1.53,1.53 0 0 1 -1.53,-1.53 v -9.47 a 1.53,1.53 0 0 1 1.53,-1.54 z" class="cls-4" style="fill:#a800fa"/><path id="path204" d="M 1.53,74.49 H 11 A 1.54,1.54 0 0 1 12.54,76 v 9.46 A 1.53,1.53 0 0 1 11,87 H 1.54 A 1.54,1.54 0 0 1 0,85.49 V 76 a 1.53,1.53 0 0 1 1.53,-1.53 z" class="cls-2" style="fill:#9bc331"/><path id="path206" d="m 16.75,74.49 h 9.47 A 1.54,1.54 0 0 1 27.75,76 v 9.46 A 1.53,1.53 0 0 1 26.22,87 H 16.75 A 1.53,1.53 0 0 1 15.22,85.47 V 76 a 1.53,1.53 0 0 1 1.53,-1.53 z" class="cls-2" style="fill:#9bc331"/><path id="path208" d="m 32,74.49 h 9.47 A 1.54,1.54 0 0 1 43,76 v 9.46 A 1.53,1.53 0 0 1 41.44,87 H 32 A 1.53,1.53 0 0 1 30.47,85.47 V 76 A 1.53,1.53 0 0 1 32,74.49 Z" class="cls-2" style="fill:#9bc331"/><path id="path210" d="m 47.19,74.49 h 9.47 A 1.54,1.54 0 0 1 58.19,76 v 9.46 A 1.53,1.53 0 0 1 56.65,87 H 47.19 A 1.53,1.53 0 0 1 45.66,85.47 V 76 a 1.53,1.53 0 0 1 1.53,-1.53 z" class="cls-2" style="fill:#9bc331"/><path id="path212" d="m 62.4,74.49 h 9.47 A 1.54,1.54 0 0 1 73.41,76 v 9.46 A 1.53,1.53 0 0 1 71.87,87 H 62.4 A 1.53,1.53 0 0 1 60.87,85.47 V 76 a 1.53,1.53 0 0 1 1.53,-1.53 z" class="cls-2" style="fill:#9bc331"/><path id="path214" d="m 77.62,74.49 h 9.47 A 1.54,1.54 0 0 1 88.62,76 v 9.46 A 1.53,1.53 0 0 1 87.09,87 H 77.62 A 1.53,1.53 0 0 1 76.09,85.47 V 76 a 1.53,1.53 0 0 1 1.53,-1.51 z" class="cls-2" style="fill:#9bc331"/><path id="path216" d="m 92.84,74.49 h 9.47 a 1.54,1.54 0 0 1 1.53,1.51 v 9.46 A 1.53,1.53 0 0 1 102.31,87 H 92.84 A 1.53,1.53 0 0 1 91.31,85.47 V 76 a 1.53,1.53 0 0 1 1.53,-1.51 z" class="cls-2" style="fill:#9bc331"/><path id="path218" d="m 108.06,74.49 h 9.47 a 1.54,1.54 0 0 1 1.53,1.51 v 9.46 A 1.53,1.53 0 0 1 117.52,87 h -9.47 a 1.54,1.54 0 0 1 -1.54,-1.54 V 76 a 1.53,1.53 0 0 1 1.55,-1.51 z" class="cls-2" style="fill:#9bc331"/><path id="path220" d="m 184.14,74.49 h 9.47 a 1.54,1.54 0 0 1 1.53,1.51 v 9.46 A 1.53,1.53 0 0 1 193.61,87 h -9.47 A 1.54,1.54 0 0 1 182.6,85.46 V 76 a 1.53,1.53 0 0 1 1.54,-1.51 z" class="cls-2" style="fill:#9bc331"/><path id="path222" d="m 199.36,74.49 h 9.47 a 1.54,1.54 0 0 1 1.53,1.51 v 9.46 A 1.53,1.53 0 0 1 208.83,87 h -9.47 a 1.53,1.53 0 0 1 -1.53,-1.53 V 76 a 1.53,1.53 0 0 1 1.53,-1.51 z" class="cls-2" style="fill:#9bc331"/><path id="path224" d="M 214.58,74.49 H 224 a 1.54,1.54 0 0 1 1.58,1.51 v 9.46 A 1.53,1.53 0 0 1 224,87 h -9.47 A 1.53,1.53 0 0 1 213,85.49 V 76 a 1.53,1.53 0 0 1 1.58,-1.51 z" class="cls-2" style="fill:#9bc331"/><path id="path226" d="m 229.79,74.49 h 9.47 A 1.54,1.54 0 0 1 240.8,76 v 9.46 A 1.53,1.53 0 0 1 239.26,87 h -9.47 a 1.53,1.53 0 0 1 -1.53,-1.53 V 76 a 1.53,1.53 0 0 1 1.53,-1.51 z" class="cls-2" style="fill:#9bc331"/><path id="path228" d="m 245,74.49 h 9.47 A 1.54,1.54 0 0 1 256,76 v 9.46 A 1.53,1.53 0 0 1 254.48,87 H 245 a 1.54,1.54 0 0 1 -1.54,-1.54 V 76 A 1.53,1.53 0 0 1 245,74.49 Z" class="cls-2" style="fill:#9bc331"/><path id="path230" d="M 351.53,74.49 H 361 a 1.54,1.54 0 0 1 1.53,1.51 v 9.46 A 1.53,1.53 0 0 1 361,87 h -9.47 A 1.54,1.54 0 0 1 350,85.49 V 76 a 1.53,1.53 0 0 1 1.53,-1.51 z" class="cls-3" style="fill:#ff0005"/><path id="path232" d="m 366.75,74.49 h 9.47 a 1.54,1.54 0 0 1 1.53,1.51 v 9.46 A 1.53,1.53 0 0 1 376.22,87 h -9.47 a 1.53,1.53 0 0 1 -1.53,-1.53 V 76 a 1.53,1.53 0 0 1 1.53,-1.51 z" class="cls-4" style="fill:#a800fa"/><path id="path234" d="m 382,74.49 h 9.47 A 1.54,1.54 0 0 1 393,76 v 9.46 A 1.54,1.54 0 0 1 391.43,87 H 382 a 1.53,1.53 0 0 1 -1.53,-1.53 V 76 A 1.53,1.53 0 0 1 382,74.49 Z" class="cls-2" style="fill:#9bc331"/><path id="path236" d="m 455.85,74.49 h 9.47 a 1.54,1.54 0 0 1 1.53,1.51 v 9.46 A 1.53,1.53 0 0 1 465.32,87 h -9.47 a 1.53,1.53 0 0 1 -1.53,-1.53 V 76 a 1.53,1.53 0 0 1 1.53,-1.53 z" class="cls-4" style="fill:#a800fa"/><path id="path238" d="m 412.4,74.49 h 9.47 A 1.54,1.54 0 0 1 423.4,76 v 9.46 A 1.53,1.53 0 0 1 421.87,87 h -9.47 a 1.53,1.53 0 0 1 -1.53,-1.53 V 76 a 1.53,1.53 0 0 1 1.53,-1.51 z" class="cls-4" style="fill:#a800fa"/><path id="path240" d="M 1.53,89.39 H 11 a 1.54,1.54 0 0 1 1.54,1.54 v 9.46 A 1.53,1.53 0 0 1 11,101.92 H 1.54 A 1.54,1.54 0 0 1 0,100.39 v -9.47 a 1.53,1.53 0 0 1 1.53,-1.53 z" class="cls-2" style="fill:#9bc331"/><path id="path242" d="m 16.75,89.39 h 9.47 a 1.54,1.54 0 0 1 1.54,1.54 v 9.46 a 1.53,1.53 0 0 1 -1.53,1.53 h -9.48 a 1.53,1.53 0 0 1 -1.53,-1.53 v -9.47 a 1.53,1.53 0 0 1 1.53,-1.53 z" class="cls-2" style="fill:#9bc331"/><path id="path244" d="m 32,89.39 h 9.47 A 1.54,1.54 0 0 1 43,90.92 v 9.46 a 1.53,1.53 0 0 1 -1.53,1.53 H 32 a 1.53,1.53 0 0 1 -1.53,-1.53 V 90.92 A 1.53,1.53 0 0 1 32,89.39 Z" class="cls-2" style="fill:#9bc331"/><path id="path246" d="m 62.4,89.39 h 9.47 a 1.54,1.54 0 0 1 1.54,1.54 v 9.46 a 1.53,1.53 0 0 1 -1.53,1.53 H 62.4 a 1.53,1.53 0 0 1 -1.53,-1.53 v -9.47 a 1.53,1.53 0 0 1 1.53,-1.53 z" class="cls-2" style="fill:#9bc331"/><path id="path248" d="m 77.62,89.39 h 9.47 a 1.54,1.54 0 0 1 1.54,1.54 v 9.46 a 1.53,1.53 0 0 1 -1.53,1.53 h -9.48 a 1.53,1.53 0 0 1 -1.53,-1.53 v -9.47 a 1.53,1.53 0 0 1 1.53,-1.53 z" class="cls-2" style="fill:#9bc331"/><path id="path250" d="m 92.84,89.39 h 9.47 a 1.54,1.54 0 0 1 1.54,1.54 v 9.46 a 1.53,1.53 0 0 1 -1.53,1.53 h -9.48 a 1.53,1.53 0 0 1 -1.53,-1.53 v -9.47 a 1.53,1.53 0 0 1 1.53,-1.53 z" class="cls-2" style="fill:#9bc331"/><path id="path252" d="m 108.06,89.39 h 9.47 a 1.54,1.54 0 0 1 1.54,1.54 v 9.46 a 1.53,1.53 0 0 1 -1.53,1.53 h -9.47 a 1.54,1.54 0 0 1 -1.54,-1.54 v -9.46 a 1.53,1.53 0 0 1 1.53,-1.53 z" class="cls-2" style="fill:#9bc331"/><path id="path254" d="m 184.14,89.39 h 9.47 a 1.53,1.53 0 0 1 1.53,1.53 v 9.47 a 1.53,1.53 0 0 1 -1.53,1.53 h -9.47 a 1.54,1.54 0 0 1 -1.54,-1.54 v -9.46 a 1.53,1.53 0 0 1 1.54,-1.53 z" class="cls-2" style="fill:#9bc331"/><path id="path256" d="m 199.36,89.39 h 9.47 a 1.54,1.54 0 0 1 1.54,1.54 v 9.46 a 1.53,1.53 0 0 1 -1.53,1.53 h -9.47 a 1.53,1.53 0 0 1 -1.53,-1.53 v -9.47 a 1.53,1.53 0 0 1 1.52,-1.53 z" class="cls-2" style="fill:#9bc331"/><path id="path258" d="M 214.58,89.39 H 224 a 1.54,1.54 0 0 1 1.54,1.54 v 9.46 a 1.53,1.53 0 0 1 -1.53,1.53 h -9.47 a 1.53,1.53 0 0 1 -1.53,-1.53 v -9.47 a 1.53,1.53 0 0 1 1.57,-1.53 z" class="cls-2" style="fill:#9bc331"/><path id="path260" d="m 229.79,89.39 h 9.47 a 1.54,1.54 0 0 1 1.54,1.54 v 9.46 a 1.53,1.53 0 0 1 -1.53,1.53 h -9.47 a 1.53,1.53 0 0 1 -1.53,-1.53 v -9.47 a 1.53,1.53 0 0 1 1.52,-1.53 z" class="cls-2" style="fill:#9bc331"/><path id="path262" d="m 245,89.39 h 9.47 a 1.54,1.54 0 0 1 1.53,1.53 v 9.46 a 1.53,1.53 0 0 1 -1.53,1.53 H 245 a 1.54,1.54 0 0 1 -1.54,-1.54 V 90.92 A 1.53,1.53 0 0 1 245,89.39 Z" class="cls-2" style="fill:#9bc331"/><path id="path264" d="M 351.53,89.39 H 361 a 1.54,1.54 0 0 1 1.54,1.54 v 9.46 a 1.53,1.53 0 0 1 -1.53,1.53 h -9.47 A 1.54,1.54 0 0 1 350,100.38 v -9.46 a 1.53,1.53 0 0 1 1.53,-1.53 z" class="cls-3" style="fill:#ff0005"/><path id="path266" d="m 366.75,89.39 h 9.47 a 1.54,1.54 0 0 1 1.54,1.54 v 9.46 a 1.53,1.53 0 0 1 -1.53,1.53 h -9.47 a 1.53,1.53 0 0 1 -1.53,-1.53 v -9.47 a 1.53,1.53 0 0 1 1.52,-1.53 z" class="cls-2" style="fill:#9bc331"/><path id="path268" d="m 382,89.39 h 9.47 a 1.54,1.54 0 0 1 1.53,1.53 v 9.46 a 1.53,1.53 0 0 1 -1.53,1.53 H 382 a 1.53,1.53 0 0 1 -1.53,-1.53 V 90.92 A 1.53,1.53 0 0 1 382,89.39 Z" class="cls-3" style="fill:#ff0005"/><path id="path270" d="m 397.19,89.39 h 9.47 a 1.54,1.54 0 0 1 1.54,1.54 v 9.46 a 1.53,1.53 0 0 1 -1.53,1.53 h -9.47 a 1.53,1.53 0 0 1 -1.53,-1.53 v -9.47 a 1.53,1.53 0 0 1 1.52,-1.53 z" class="cls-2" style="fill:#9bc331"/><path id="path272" d="M 442.58,89.39 H 452 a 1.54,1.54 0 0 1 1.54,1.54 v 9.46 a 1.53,1.53 0 0 1 -1.53,1.53 h -9.47 A 1.54,1.54 0 0 1 441,100.38 v -9.46 a 1.53,1.53 0 0 1 1.58,-1.53 z" class="cls-2" style="fill:#9bc331"/><path id="path274" d="M 1.53,104.28 H 11 a 1.54,1.54 0 0 1 1.54,1.54 v 9.46 A 1.53,1.53 0 0 1 11,116.82 H 1.54 A 1.54,1.54 0 0 1 0,115.28 v -9.47 a 1.53,1.53 0 0 1 1.53,-1.53 z" class="cls-2" style="fill:#9bc331"/><path id="path276" d="m 16.75,104.28 h 9.47 a 1.54,1.54 0 0 1 1.54,1.54 v 9.46 a 1.53,1.53 0 0 1 -1.53,1.53 h -9.48 a 1.53,1.53 0 0 1 -1.53,-1.53 v -9.47 a 1.53,1.53 0 0 1 1.53,-1.53 z" class="cls-2" style="fill:#9bc331"/><path id="path278" d="m 62.4,104.28 h 9.47 a 1.54,1.54 0 0 1 1.54,1.54 v 9.46 a 1.53,1.53 0 0 1 -1.53,1.53 H 62.4 a 1.53,1.53 0 0 1 -1.53,-1.53 v -9.47 a 1.53,1.53 0 0 1 1.53,-1.53 z" class="cls-2" style="fill:#9bc331"/><path id="path280" d="m 77.62,104.28 h 9.47 a 1.54,1.54 0 0 1 1.54,1.54 v 9.46 a 1.53,1.53 0 0 1 -1.53,1.53 h -9.48 a 1.53,1.53 0 0 1 -1.53,-1.53 v -9.47 a 1.53,1.53 0 0 1 1.53,-1.53 z" class="cls-2" style="fill:#9bc331"/><path id="path282" d="m 92.84,104.28 h 9.47 a 1.54,1.54 0 0 1 1.54,1.54 v 9.46 a 1.53,1.53 0 0 1 -1.53,1.53 h -9.48 a 1.53,1.53 0 0 1 -1.53,-1.53 v -9.47 a 1.53,1.53 0 0 1 1.53,-1.53 z" class="cls-2" style="fill:#9bc331"/><path id="path284" d="m 108.06,104.28 h 9.47 a 1.54,1.54 0 0 1 1.54,1.54 v 9.46 a 1.53,1.53 0 0 1 -1.53,1.53 h -9.47 a 1.54,1.54 0 0 1 -1.54,-1.54 v -9.47 a 1.53,1.53 0 0 1 1.53,-1.52 z" class="cls-2" style="fill:#9bc331"/><path id="path286" d="m 184.14,104.28 h 9.47 a 1.54,1.54 0 0 1 1.54,1.54 v 9.46 a 1.53,1.53 0 0 1 -1.53,1.53 h -9.47 a 1.54,1.54 0 0 1 -1.54,-1.54 v -9.47 a 1.53,1.53 0 0 1 1.53,-1.53 z" class="cls-2" style="fill:#9bc331"/><path id="path288" d="m 199.36,104.28 h 9.47 a 1.54,1.54 0 0 1 1.54,1.54 v 9.46 a 1.53,1.53 0 0 1 -1.53,1.53 h -9.47 a 1.53,1.53 0 0 1 -1.53,-1.53 v -9.47 a 1.53,1.53 0 0 1 1.53,-1.53 z" class="cls-2" style="fill:#9bc331"/><path id="path290" d="M 214.58,104.28 H 224 a 1.54,1.54 0 0 1 1.54,1.54 v 9.46 a 1.53,1.53 0 0 1 -1.53,1.53 h -9.47 a 1.53,1.53 0 0 1 -1.53,-1.53 v -9.47 a 1.53,1.53 0 0 1 1.53,-1.53 z" class="cls-2" style="fill:#9bc331"/><path id="path292" d="m 229.79,104.28 h 9.47 a 1.54,1.54 0 0 1 1.54,1.54 v 9.46 a 1.53,1.53 0 0 1 -1.53,1.53 h -9.47 a 1.53,1.53 0 0 1 -1.53,-1.53 v -9.47 a 1.53,1.53 0 0 1 1.53,-1.53 z" class="cls-2" style="fill:#9bc331"/><path id="path294" d="m 366.75,104.28 h 9.47 a 1.54,1.54 0 0 1 1.54,1.54 v 9.46 a 1.53,1.53 0 0 1 -1.53,1.53 h -9.47 a 1.53,1.53 0 0 1 -1.53,-1.53 v -9.47 a 1.53,1.53 0 0 1 1.52,-1.53 z" class="cls-4" style="fill:#a800fa"/><path id="path296" d="m 382,104.28 h 9.47 a 1.54,1.54 0 0 1 1.54,1.54 v 9.46 a 1.53,1.53 0 0 1 -1.53,1.53 H 382 a 1.53,1.53 0 0 1 -1.53,-1.53 v -9.47 a 1.53,1.53 0 0 1 1.53,-1.53 z" class="cls-4" style="fill:#a800fa"/><path id="path298" d="m 455.79,104.28 h 9.47 a 1.54,1.54 0 0 1 1.54,1.54 v 9.46 a 1.53,1.53 0 0 1 -1.53,1.53 h -9.47 a 1.53,1.53 0 0 1 -1.53,-1.53 v -9.47 a 1.53,1.53 0 0 1 1.52,-1.53 z" class="cls-3" style="fill:#ff0005"/><path id="path300" d="m 412.4,104.28 h 9.47 a 1.54,1.54 0 0 1 1.54,1.54 v 9.46 a 1.53,1.53 0 0 1 -1.53,1.53 h -9.48 a 1.54,1.54 0 0 1 -1.54,-1.54 v -9.47 a 1.53,1.53 0 0 1 1.54,-1.52 z" class="cls-4" style="fill:#a800fa"/><path id="path302" d="m 62.4,119.18 h 9.47 a 1.54,1.54 0 0 1 1.54,1.54 v 9.46 a 1.53,1.53 0 0 1 -1.53,1.53 H 62.4 a 1.53,1.53 0 0 1 -1.53,-1.53 v -9.47 a 1.53,1.53 0 0 1 1.53,-1.53 z" class="cls-2" style="fill:#9bc331"/><path id="path304" d="m 77.62,119.18 h 9.47 a 1.54,1.54 0 0 1 1.54,1.54 v 9.46 a 1.53,1.53 0 0 1 -1.53,1.53 h -9.48 a 1.53,1.53 0 0 1 -1.53,-1.53 v -9.47 a 1.53,1.53 0 0 1 1.53,-1.53 z" class="cls-2" style="fill:#9bc331"/><path id="path306" d="m 92.84,119.18 h 9.47 a 1.54,1.54 0 0 1 1.54,1.54 v 9.46 a 1.54,1.54 0 0 1 -1.54,1.54 h -9.47 a 1.53,1.53 0 0 1 -1.53,-1.53 v -9.47 a 1.53,1.53 0 0 1 1.53,-1.54 z" class="cls-2" style="fill:#9bc331"/><path id="path308" d="m 108.06,119.18 h 9.47 a 1.54,1.54 0 0 1 1.54,1.54 v 9.46 a 1.53,1.53 0 0 1 -1.53,1.53 h -9.47 a 1.54,1.54 0 0 1 -1.54,-1.54 v -9.47 a 1.53,1.53 0 0 1 1.53,-1.52 z" class="cls-2" style="fill:#9bc331"/><path id="path310" d="m 184.14,119.18 h 9.47 a 1.54,1.54 0 0 1 1.54,1.54 v 9.46 a 1.54,1.54 0 0 1 -1.54,1.54 h -9.47 a 1.54,1.54 0 0 1 -1.54,-1.54 v -9.47 a 1.53,1.53 0 0 1 1.54,-1.53 z" class="cls-2" style="fill:#9bc331"/><path id="path312" d="m 199.36,119.18 h 9.47 a 1.54,1.54 0 0 1 1.54,1.54 v 9.46 a 1.53,1.53 0 0 1 -1.53,1.53 h -9.47 a 1.53,1.53 0 0 1 -1.53,-1.53 v -9.47 a 1.53,1.53 0 0 1 1.52,-1.53 z" class="cls-2" style="fill:#9bc331"/><path id="path314" d="M 214.58,119.18 H 224 a 1.54,1.54 0 0 1 1.54,1.54 v 9.46 a 1.53,1.53 0 0 1 -1.53,1.53 h -9.47 a 1.53,1.53 0 0 1 -1.53,-1.53 v -9.47 a 1.53,1.53 0 0 1 1.57,-1.53 z" class="cls-2" style="fill:#9bc331"/><path id="path316" d="m 229.79,119.18 h 9.47 a 1.54,1.54 0 0 1 1.54,1.54 v 9.46 a 1.53,1.53 0 0 1 -1.53,1.53 h -9.47 a 1.53,1.53 0 0 1 -1.53,-1.53 v -9.47 a 1.53,1.53 0 0 1 1.52,-1.53 z" class="cls-2" style="fill:#9bc331"/><path id="path318" d="m 366.75,119.18 h 9.47 a 1.54,1.54 0 0 1 1.54,1.54 v 9.46 a 1.53,1.53 0 0 1 -1.53,1.53 h -9.47 a 1.53,1.53 0 0 1 -1.53,-1.53 v -9.47 a 1.53,1.53 0 0 1 1.52,-1.53 z" class="cls-3" style="fill:#ff0005"/><path id="path320" d="m 382,119.18 h 9.47 a 1.54,1.54 0 0 1 1.54,1.54 v 9.46 a 1.53,1.53 0 0 1 -1.53,1.53 H 382 a 1.53,1.53 0 0 1 -1.53,-1.53 v -9.47 a 1.53,1.53 0 0 1 1.53,-1.53 z" class="cls-2" style="fill:#9bc331"/><path id="path322" d="m 397.19,119.18 h 9.47 a 1.54,1.54 0 0 1 1.54,1.54 v 9.46 a 1.53,1.53 0 0 1 -1.53,1.53 h -9.47 a 1.53,1.53 0 0 1 -1.53,-1.53 v -9.47 a 1.53,1.53 0 0 1 1.52,-1.53 z" class="cls-4" style="fill:#a800fa"/><rect id="rect324" width="12.54" height="12.53" x="425.6" y="119.18" class="cls-2" rx="1.54" style="fill:#9bc331"/><rect id="rect326" width="12.54" height="12.53" x="60.87" y="134.08" class="cls-2" rx="1.53" style="fill:#9bc331"/><path id="path328" d="m 77.62,134.08 h 9.47 a 1.54,1.54 0 0 1 1.54,1.54 v 9.46 a 1.53,1.53 0 0 1 -1.53,1.53 h -9.48 a 1.53,1.53 0 0 1 -1.53,-1.53 v -9.47 a 1.53,1.53 0 0 1 1.53,-1.53 z" class="cls-2" style="fill:#9bc331"/><rect id="rect330" width="12.54" height="12.53" x="91.3" y="134.08" class="cls-2" rx="1.53" style="fill:#9bc331"/><path id="path332" d="m 108.06,134.08 h 9.47 a 1.54,1.54 0 0 1 1.54,1.54 v 9.46 a 1.53,1.53 0 0 1 -1.53,1.53 h -9.47 a 1.54,1.54 0 0 1 -1.54,-1.54 v -9.47 a 1.53,1.53 0 0 1 1.53,-1.52 z" class="cls-2" style="fill:#9bc331"/><path id="path334" d="m 184.14,134.08 h 9.47 a 1.54,1.54 0 0 1 1.54,1.54 v 9.46 a 1.53,1.53 0 0 1 -1.53,1.53 h -9.47 a 1.54,1.54 0 0 1 -1.54,-1.54 v -9.47 a 1.53,1.53 0 0 1 1.53,-1.52 z" class="cls-2" style="fill:#9bc331"/><path id="path336" d="m 199.36,134.08 h 9.47 a 1.54,1.54 0 0 1 1.54,1.54 v 9.46 a 1.53,1.53 0 0 1 -1.53,1.53 h -9.47 a 1.53,1.53 0 0 1 -1.53,-1.53 v -9.47 a 1.53,1.53 0 0 1 1.52,-1.53 z" class="cls-2" style="fill:#9bc331"/><path id="path338" d="M 214.58,134.08 H 224 a 1.54,1.54 0 0 1 1.54,1.54 v 9.46 a 1.53,1.53 0 0 1 -1.53,1.53 h -9.47 a 1.53,1.53 0 0 1 -1.53,-1.53 v -9.47 a 1.53,1.53 0 0 1 1.57,-1.53 z" class="cls-2" style="fill:#9bc331"/><path id="path340" d="m 229.79,134.08 h 9.47 a 1.54,1.54 0 0 1 1.54,1.54 v 9.46 a 1.53,1.53 0 0 1 -1.53,1.53 h -9.47 a 1.53,1.53 0 0 1 -1.53,-1.53 v -9.47 a 1.53,1.53 0 0 1 1.52,-1.53 z" class="cls-2" style="fill:#9bc331"/><rect id="rect342" width="12.54" height="12.53" x="365.22" y="134.08" class="cls-2" rx="1.53" style="fill:#9bc331"/><path id="path344" d="m 382,134.08 h 9.47 a 1.54,1.54 0 0 1 1.54,1.54 v 9.46 a 1.53,1.53 0 0 1 -1.53,1.53 H 382 a 1.53,1.53 0 0 1 -1.53,-1.53 v -9.47 a 1.53,1.53 0 0 1 1.53,-1.53 z" class="cls-2" style="fill:#9bc331"/><path id="path346" d="m 470.09,134.08 h 9.47 a 1.54,1.54 0 0 1 1.54,1.54 v 9.46 a 1.53,1.53 0 0 1 -1.53,1.53 h -9.47 a 1.53,1.53 0 0 1 -1.53,-1.53 v -9.47 a 1.53,1.53 0 0 1 1.52,-1.53 z" class="cls-4" style="fill:#a800fa"/><path id="path348" d="m 412.4,134.08 h 9.47 a 1.54,1.54 0 0 1 1.54,1.54 v 9.46 a 1.53,1.53 0 0 1 -1.53,1.53 h -9.48 a 1.54,1.54 0 0 1 -1.54,-1.54 v -9.47 a 1.53,1.53 0 0 1 1.54,-1.52 z" class="cls-4" style="fill:#a800fa"/><rect id="rect350" width="12.54" height="12.53" x="60.87" y="148.98" class="cls-2" rx="1.53" style="fill:#9bc331"/><path id="path352" d="m 77.62,149 h 9.47 a 1.54,1.54 0 0 1 1.54,1.54 V 160 a 1.53,1.53 0 0 1 -1.53,1.53 H 77.62 A 1.53,1.53 0 0 1 76.09,160 v -9.47 A 1.53,1.53 0 0 1 77.62,149 Z" class="cls-2" style="fill:#9bc331"/><rect id="rect354" width="12.54" height="12.53" x="91.3" y="148.98" class="cls-2" rx="1.53" style="fill:#9bc331"/><path id="path356" d="m 108.06,149 h 9.47 a 1.54,1.54 0 0 1 1.54,1.54 V 160 a 1.53,1.53 0 0 1 -1.53,1.53 h -9.47 a 1.54,1.54 0 0 1 -1.54,-1.54 v -9.47 a 1.53,1.53 0 0 1 1.53,-1.52 z" class="cls-2" style="fill:#9bc331"/><path id="path358" d="m 184.14,149 h 9.47 a 1.54,1.54 0 0 1 1.54,1.54 V 160 a 1.53,1.53 0 0 1 -1.53,1.53 h -9.47 a 1.54,1.54 0 0 1 -1.54,-1.54 v -9.47 a 1.53,1.53 0 0 1 1.53,-1.52 z" class="cls-2" style="fill:#9bc331"/><path id="path360" d="m 199.36,149 h 9.47 a 1.54,1.54 0 0 1 1.54,1.54 V 160 a 1.53,1.53 0 0 1 -1.53,1.53 h -9.47 A 1.53,1.53 0 0 1 197.84,160 v -9.47 a 1.53,1.53 0 0 1 1.52,-1.53 z" class="cls-2" style="fill:#9bc331"/><path id="path362" d="M 214.58,149 H 224 a 1.54,1.54 0 0 1 1.54,1.54 V 160 a 1.53,1.53 0 0 1 -1.53,1.53 h -9.47 A 1.53,1.53 0 0 1 213,160 v -9.47 a 1.53,1.53 0 0 1 1.58,-1.53 z" class="cls-2" style="fill:#9bc331"/><path id="path364" d="m 229.79,149 h 9.47 a 1.54,1.54 0 0 1 1.54,1.54 V 160 a 1.53,1.53 0 0 1 -1.53,1.53 H 229.8 A 1.53,1.53 0 0 1 228.27,160 v -9.47 a 1.53,1.53 0 0 1 1.52,-1.53 z" class="cls-2" style="fill:#9bc331"/><rect id="rect366" width="12.54" height="12.53" x="365.22" y="148.98" class="cls-3" rx="1.53" style="fill:#ff0005"/><path id="path368" d="m 382,149 h 9.47 a 1.54,1.54 0 0 1 1.54,1.54 V 160 a 1.53,1.53 0 0 1 -1.53,1.53 H 382 A 1.53,1.53 0 0 1 380.47,160 v -9.47 A 1.53,1.53 0 0 1 382,149 Z" class="cls-2" style="fill:#9bc331"/><path id="path370" d="m 397.18,149 h 9.47 a 1.54,1.54 0 0 1 1.54,1.54 V 160 a 1.53,1.53 0 0 1 -1.53,1.53 h -9.47 A 1.53,1.53 0 0 1 395.66,160 v -9.47 a 1.53,1.53 0 0 1 1.52,-1.53 z" class="cls-4" style="fill:#a800fa"/><path id="path372" d="m 442.6,149 h 9.47 a 1.53,1.53 0 0 1 1.53,1.53 V 160 a 1.53,1.53 0 0 1 -1.53,1.53 h -9.47 a 1.54,1.54 0 0 1 -1.54,-1.54 v -9.47 A 1.53,1.53 0 0 1 442.6,149 Z" class="cls-4" style="fill:#a800fa"/><path id="path374" d="m 62.4,163.87 h 9.47 a 1.54,1.54 0 0 1 1.54,1.54 v 9.46 a 1.53,1.53 0 0 1 -1.53,1.53 H 62.4 a 1.53,1.53 0 0 1 -1.53,-1.53 v -9.47 a 1.53,1.53 0 0 1 1.53,-1.53 z" class="cls-2" style="fill:#9bc331"/><path id="path376" d="m 77.62,163.87 h 9.47 a 1.54,1.54 0 0 1 1.54,1.54 v 9.46 a 1.54,1.54 0 0 1 -1.54,1.54 h -9.47 a 1.53,1.53 0 0 1 -1.53,-1.53 v -9.47 a 1.53,1.53 0 0 1 1.53,-1.54 z" class="cls-2" style="fill:#9bc331"/><path id="path378" d="m 92.84,163.87 h 9.47 a 1.53,1.53 0 0 1 1.53,1.53 v 9.46 a 1.54,1.54 0 0 1 -1.54,1.54 h -9.46 a 1.53,1.53 0 0 1 -1.53,-1.53 v -9.47 a 1.53,1.53 0 0 1 1.53,-1.53 z" class="cls-2" style="fill:#9bc331"/><path id="path380" d="m 108.06,163.87 h 9.47 a 1.54,1.54 0 0 1 1.54,1.54 v 9.46 a 1.53,1.53 0 0 1 -1.53,1.53 h -9.47 a 1.54,1.54 0 0 1 -1.54,-1.54 v -9.47 a 1.53,1.53 0 0 1 1.53,-1.52 z" class="cls-2" style="fill:#9bc331"/><path id="path382" d="m 184.14,163.87 h 9.47 a 1.54,1.54 0 0 1 1.54,1.54 v 9.46 a 1.53,1.53 0 0 1 -1.53,1.53 h -9.47 a 1.54,1.54 0 0 1 -1.54,-1.54 v -9.47 a 1.53,1.53 0 0 1 1.53,-1.52 z" class="cls-2" style="fill:#9bc331"/><path id="path384" d="m 199.36,163.87 h 9.47 a 1.54,1.54 0 0 1 1.54,1.54 v 9.46 a 1.53,1.53 0 0 1 -1.53,1.53 h -9.47 a 1.53,1.53 0 0 1 -1.53,-1.53 v -9.47 a 1.53,1.53 0 0 1 1.52,-1.53 z" class="cls-2" style="fill:#9bc331"/><path id="path386" d="M 214.58,163.87 H 224 a 1.54,1.54 0 0 1 1.54,1.54 v 9.46 a 1.53,1.53 0 0 1 -1.53,1.53 h -9.47 a 1.53,1.53 0 0 1 -1.53,-1.53 v -9.47 a 1.53,1.53 0 0 1 1.57,-1.53 z" class="cls-2" style="fill:#9bc331"/><path id="path388" d="m 229.79,163.87 h 9.47 a 1.54,1.54 0 0 1 1.54,1.54 v 9.46 a 1.53,1.53 0 0 1 -1.53,1.53 h -9.47 a 1.53,1.53 0 0 1 -1.53,-1.53 v -9.47 a 1.53,1.53 0 0 1 1.52,-1.53 z" class="cls-2" style="fill:#9bc331"/><path id="path390" d="m 366.75,163.87 h 9.47 a 1.54,1.54 0 0 1 1.54,1.54 v 9.46 a 1.53,1.53 0 0 1 -1.53,1.53 h -9.47 a 1.53,1.53 0 0 1 -1.53,-1.53 v -9.47 a 1.53,1.53 0 0 1 1.52,-1.53 z" class="cls-3" style="fill:#ff0005"/><path id="path392" d="m 382,163.87 h 9.47 a 1.54,1.54 0 0 1 1.54,1.54 v 9.46 a 1.54,1.54 0 0 1 -1.54,1.54 H 382 a 1.53,1.53 0 0 1 -1.53,-1.53 v -9.47 a 1.53,1.53 0 0 1 1.53,-1.54 z" class="cls-2" style="fill:#9bc331"/><path id="path394" d="m 397.18,163.87 h 9.47 a 1.54,1.54 0 0 1 1.54,1.54 v 9.46 a 1.54,1.54 0 0 1 -1.54,1.54 h -9.47 a 1.53,1.53 0 0 1 -1.53,-1.53 v -9.47 a 1.53,1.53 0 0 1 1.53,-1.54 z" class="cls-3" style="fill:#ff0005"/><path id="path396" d="m 412.4,163.87 h 9.47 a 1.54,1.54 0 0 1 1.54,1.54 v 9.46 a 1.53,1.53 0 0 1 -1.53,1.53 h -9.48 a 1.53,1.53 0 0 1 -1.53,-1.53 v -9.47 a 1.53,1.53 0 0 1 1.53,-1.53 z" class="cls-4" style="fill:#a800fa"/><path id="path398" d="m 62.4,178.77 h 9.47 a 1.54,1.54 0 0 1 1.54,1.54 v 9.46 a 1.53,1.53 0 0 1 -1.53,1.53 H 62.4 a 1.53,1.53 0 0 1 -1.53,-1.53 v -9.47 a 1.53,1.53 0 0 1 1.53,-1.53 z" class="cls-2" style="fill:#9bc331"/><path id="path400" d="m 77.62,178.77 h 9.47 a 1.54,1.54 0 0 1 1.54,1.54 v 9.46 a 1.53,1.53 0 0 1 -1.53,1.53 h -9.48 a 1.53,1.53 0 0 1 -1.53,-1.53 v -9.47 a 1.53,1.53 0 0 1 1.53,-1.53 z" class="cls-2" style="fill:#9bc331"/><path id="path402" d="m 92.84,178.77 h 9.47 a 1.54,1.54 0 0 1 1.54,1.54 v 9.46 a 1.53,1.53 0 0 1 -1.53,1.53 h -9.48 a 1.53,1.53 0 0 1 -1.53,-1.53 v -9.47 a 1.53,1.53 0 0 1 1.53,-1.53 z" class="cls-2" style="fill:#9bc331"/><path id="path404" d="m 108.06,178.77 h 9.47 a 1.54,1.54 0 0 1 1.54,1.54 v 9.46 a 1.53,1.53 0 0 1 -1.53,1.53 h -9.47 a 1.54,1.54 0 0 1 -1.54,-1.54 v -9.47 a 1.53,1.53 0 0 1 1.53,-1.52 z" class="cls-2" style="fill:#9bc331"/><path id="path406" d="m 184.14,178.77 h 9.47 a 1.54,1.54 0 0 1 1.54,1.54 v 9.46 a 1.53,1.53 0 0 1 -1.53,1.53 h -9.47 a 1.54,1.54 0 0 1 -1.54,-1.54 v -9.47 a 1.53,1.53 0 0 1 1.53,-1.52 z" class="cls-2" style="fill:#9bc331"/><path id="path408" d="m 199.36,178.77 h 9.47 a 1.54,1.54 0 0 1 1.54,1.54 v 9.46 a 1.53,1.53 0 0 1 -1.53,1.53 h -9.47 a 1.53,1.53 0 0 1 -1.53,-1.53 v -9.47 a 1.53,1.53 0 0 1 1.52,-1.53 z" class="cls-2" style="fill:#9bc331"/><path id="path410" d="M 214.58,178.77 H 224 a 1.54,1.54 0 0 1 1.54,1.54 v 9.46 a 1.53,1.53 0 0 1 -1.53,1.53 h -9.47 a 1.53,1.53 0 0 1 -1.53,-1.53 v -9.47 a 1.53,1.53 0 0 1 1.57,-1.53 z" class="cls-2" style="fill:#9bc331"/><path id="path412" d="m 229.79,178.77 h 9.47 a 1.54,1.54 0 0 1 1.54,1.54 v 9.46 a 1.53,1.53 0 0 1 -1.53,1.53 h -9.47 a 1.53,1.53 0 0 1 -1.53,-1.53 v -9.47 a 1.53,1.53 0 0 1 1.52,-1.53 z" class="cls-2" style="fill:#9bc331"/><path id="path414" d="m 366.75,178.77 h 9.47 a 1.54,1.54 0 0 1 1.54,1.54 v 9.46 a 1.53,1.53 0 0 1 -1.53,1.53 h -9.47 a 1.53,1.53 0 0 1 -1.53,-1.53 v -9.47 a 1.53,1.53 0 0 1 1.52,-1.53 z" class="cls-4" style="fill:#a800fa"/><path id="path416" d="m 382,178.77 h 9.47 a 1.54,1.54 0 0 1 1.54,1.54 v 9.46 a 1.53,1.53 0 0 1 -1.53,1.53 H 382 a 1.53,1.53 0 0 1 -1.53,-1.53 v -9.47 a 1.53,1.53 0 0 1 1.53,-1.53 z" class="cls-2" style="fill:#9bc331"/><path id="path418" d="m 397.18,178.77 h 9.47 a 1.54,1.54 0 0 1 1.54,1.54 v 9.46 a 1.53,1.53 0 0 1 -1.53,1.53 h -9.47 a 1.53,1.53 0 0 1 -1.53,-1.53 v -9.47 a 1.53,1.53 0 0 1 1.52,-1.53 z" class="cls-4" style="fill:#a800fa"/><path id="path420" d="m 455.83,178.77 h 9.47 a 1.54,1.54 0 0 1 1.54,1.54 v 9.46 a 1.53,1.53 0 0 1 -1.53,1.53 h -9.47 a 1.53,1.53 0 0 1 -1.53,-1.53 v -9.46 a 1.54,1.54 0 0 1 1.52,-1.54 z" class="cls-4" style="fill:#a800fa"/><path id="path422" d="m 62.4,193.67 h 9.47 a 1.54,1.54 0 0 1 1.54,1.54 v 9.46 a 1.53,1.53 0 0 1 -1.53,1.53 H 62.4 a 1.53,1.53 0 0 1 -1.53,-1.53 v -9.47 a 1.53,1.53 0 0 1 1.53,-1.53 z" class="cls-2" style="fill:#9bc331"/><path id="path424" d="m 77.62,193.67 h 9.47 a 1.53,1.53 0 0 1 1.53,1.53 v 9.46 a 1.54,1.54 0 0 1 -1.54,1.54 h -9.46 a 1.53,1.53 0 0 1 -1.53,-1.53 v -9.47 a 1.53,1.53 0 0 1 1.53,-1.53 z" class="cls-2" style="fill:#9bc331"/><path id="path426" d="m 92.84,193.67 h 9.47 a 1.54,1.54 0 0 1 1.54,1.54 v 9.46 a 1.53,1.53 0 0 1 -1.53,1.53 h -9.48 a 1.53,1.53 0 0 1 -1.53,-1.53 v -9.47 a 1.53,1.53 0 0 1 1.53,-1.53 z" class="cls-2" style="fill:#9bc331"/><path id="path428" d="m 108.06,193.67 h 9.47 a 1.54,1.54 0 0 1 1.54,1.54 v 9.46 a 1.53,1.53 0 0 1 -1.53,1.53 h -9.47 a 1.54,1.54 0 0 1 -1.54,-1.54 v -9.46 a 1.53,1.53 0 0 1 1.53,-1.53 z" class="cls-2" style="fill:#9bc331"/><path id="path430" d="m 184.14,193.67 h 9.47 a 1.54,1.54 0 0 1 1.54,1.54 v 9.46 a 1.53,1.53 0 0 1 -1.53,1.53 h -9.47 a 1.54,1.54 0 0 1 -1.54,-1.54 v -9.46 a 1.53,1.53 0 0 1 1.53,-1.53 z" class="cls-2" style="fill:#9bc331"/><path id="path432" d="m 199.36,193.67 h 9.47 a 1.54,1.54 0 0 1 1.54,1.54 v 9.46 a 1.53,1.53 0 0 1 -1.53,1.53 h -9.47 a 1.53,1.53 0 0 1 -1.53,-1.53 v -9.47 a 1.53,1.53 0 0 1 1.52,-1.53 z" class="cls-2" style="fill:#9bc331"/><path id="path434" d="M 214.58,193.67 H 224 a 1.54,1.54 0 0 1 1.54,1.54 v 9.46 A 1.53,1.53 0 0 1 224,206.2 h -9.47 A 1.53,1.53 0 0 1 213,204.67 v -9.47 a 1.53,1.53 0 0 1 1.53,-1.53 z" class="cls-2" style="fill:#9bc331"/><path id="path436" d="m 229.79,193.67 h 9.47 a 1.54,1.54 0 0 1 1.54,1.54 v 9.46 a 1.53,1.53 0 0 1 -1.53,1.53 h -9.47 a 1.53,1.53 0 0 1 -1.53,-1.53 v -9.47 a 1.53,1.53 0 0 1 1.53,-1.53 z" class="cls-2" style="fill:#9bc331"/><path id="path438" d="m 366.75,193.67 h 9.47 a 1.54,1.54 0 0 1 1.54,1.54 v 9.46 a 1.53,1.53 0 0 1 -1.53,1.53 h -9.47 a 1.53,1.53 0 0 1 -1.53,-1.53 v -9.47 a 1.53,1.53 0 0 1 1.52,-1.53 z" class="cls-2" style="fill:#9bc331"/><path id="path440" d="m 382,193.67 h 9.47 a 1.54,1.54 0 0 1 1.54,1.54 v 9.46 a 1.53,1.53 0 0 1 -1.53,1.53 H 382 a 1.53,1.53 0 0 1 -1.53,-1.53 v -9.47 a 1.53,1.53 0 0 1 1.53,-1.53 z" class="cls-4" style="fill:#a800fa"/><path id="path442" d="m 412.45,193.67 h 9.47 a 1.54,1.54 0 0 1 1.54,1.54 v 9.46 a 1.53,1.53 0 0 1 -1.53,1.53 h -9.47 a 1.53,1.53 0 0 1 -1.53,-1.53 v -9.47 a 1.53,1.53 0 0 1 1.52,-1.53 z" class="cls-4" style="fill:#a800fa"/><path id="path444" d="m 443.38,193.67 h 9.47 a 1.54,1.54 0 0 1 1.54,1.54 v 9.46 a 1.53,1.53 0 0 1 -1.53,1.53 h -9.47 a 1.54,1.54 0 0 1 -1.54,-1.54 v -9.46 a 1.53,1.53 0 0 1 1.53,-1.53 z" class="cls-2" style="fill:#9bc331"/><rect id="rect446" width="12.54" height="12.53" x="60.87" y="208.57" class="cls-2" rx="1.53" style="fill:#9bc331"/><path id="path448" d="m 77.62,208.57 h 9.47 a 1.54,1.54 0 0 1 1.54,1.54 v 9.46 a 1.53,1.53 0 0 1 -1.53,1.53 h -9.48 a 1.53,1.53 0 0 1 -1.53,-1.53 v -9.47 a 1.53,1.53 0 0 1 1.53,-1.53 z" class="cls-2" style="fill:#9bc331"/><path id="path450" d="m 92.84,208.57 h 9.47 a 1.54,1.54 0 0 1 1.54,1.54 v 9.46 a 1.53,1.53 0 0 1 -1.53,1.53 h -9.48 a 1.53,1.53 0 0 1 -1.53,-1.53 v -9.47 a 1.53,1.53 0 0 1 1.53,-1.53 z" class="cls-2" style="fill:#9bc331"/><path id="path452" d="m 108.06,208.57 h 9.47 a 1.54,1.54 0 0 1 1.54,1.54 v 9.46 a 1.53,1.53 0 0 1 -1.53,1.53 h -9.47 a 1.54,1.54 0 0 1 -1.54,-1.54 v -9.46 a 1.53,1.53 0 0 1 1.53,-1.53 z" class="cls-2" style="fill:#9bc331"/><path id="path454" d="m 184.14,208.57 h 9.47 a 1.54,1.54 0 0 1 1.54,1.54 v 9.46 a 1.53,1.53 0 0 1 -1.53,1.53 h -9.47 a 1.54,1.54 0 0 1 -1.54,-1.54 v -9.46 a 1.54,1.54 0 0 1 1.53,-1.53 z" class="cls-2" style="fill:#9bc331"/><path id="path456" d="m 199.36,208.57 h 9.47 a 1.53,1.53 0 0 1 1.53,1.53 v 9.46 a 1.54,1.54 0 0 1 -1.54,1.54 h -9.47 a 1.53,1.53 0 0 1 -1.53,-1.53 v -9.47 a 1.53,1.53 0 0 1 1.54,-1.53 z" class="cls-2" style="fill:#9bc331"/><path id="path458" d="M 214.58,208.57 H 224 a 1.54,1.54 0 0 1 1.54,1.54 v 9.46 A 1.53,1.53 0 0 1 224,221.1 h -9.47 A 1.53,1.53 0 0 1 213,219.57 v -9.47 a 1.53,1.53 0 0 1 1.58,-1.53 z" class="cls-2" style="fill:#9bc331"/><rect id="rect460" width="12.54" height="12.53" x="228.26" y="208.57" class="cls-2" rx="1.53" style="fill:#9bc331"/><rect id="rect462" width="12.54" height="12.53" x="365.22" y="208.57" class="cls-4" rx="1.53" style="fill:#a800fa"/><path id="path464" d="m 382,208.57 h 9.47 a 1.54,1.54 0 0 1 1.53,1.53 v 9.46 a 1.53,1.53 0 0 1 -1.53,1.53 H 382 a 1.53,1.53 0 0 1 -1.53,-1.53 v -9.46 a 1.53,1.53 0 0 1 1.53,-1.53 z" class="cls-2" style="fill:#9bc331"/><rect id="rect466" width="12.54" height="12.53" x="395.65" y="208.57" class="cls-4" rx="1.53" style="fill:#a800fa"/><path id="path468" d="m 427.91,208.57 h 9.47 a 1.54,1.54 0 0 1 1.54,1.54 v 9.46 a 1.53,1.53 0 0 1 -1.53,1.53 h -9.47 a 1.54,1.54 0 0 1 -1.54,-1.54 v -9.46 a 1.54,1.54 0 0 1 1.53,-1.53 z" class="cls-4" style="fill:#a800fa"/><path id="path470" d="m 62.4,223.46 h 9.47 a 1.54,1.54 0 0 1 1.54,1.54 v 9.46 A 1.53,1.53 0 0 1 71.87,236 H 62.4 a 1.53,1.53 0 0 1 -1.53,-1.53 V 225 a 1.53,1.53 0 0 1 1.53,-1.54 z" class="cls-2" style="fill:#9bc331"/><path id="path472" d="m 77.62,223.46 h 9.47 a 1.54,1.54 0 0 1 1.53,1.54 v 9.46 A 1.53,1.53 0 0 1 87.09,236 h -9.47 a 1.53,1.53 0 0 1 -1.53,-1.53 V 225 a 1.53,1.53 0 0 1 1.53,-1.54 z" class="cls-2" style="fill:#9bc331"/><path id="path474" d="m 92.84,223.46 h 9.47 a 1.54,1.54 0 0 1 1.54,1.54 v 9.46 a 1.53,1.53 0 0 1 -1.53,1.53 h -9.48 a 1.53,1.53 0 0 1 -1.53,-1.53 V 225 a 1.53,1.53 0 0 1 1.53,-1.54 z" class="cls-2" style="fill:#9bc331"/><path id="path476" d="m 108.06,223.46 h 9.47 a 1.54,1.54 0 0 1 1.54,1.54 v 9.46 a 1.53,1.53 0 0 1 -1.53,1.53 h -9.47 a 1.54,1.54 0 0 1 -1.54,-1.54 V 225 a 1.54,1.54 0 0 1 1.53,-1.54 z" class="cls-2" style="fill:#9bc331"/><path id="path478" d="m 184.14,223.46 h 9.47 a 1.54,1.54 0 0 1 1.54,1.54 v 9.46 a 1.53,1.53 0 0 1 -1.53,1.53 h -9.47 a 1.53,1.53 0 0 1 -1.53,-1.53 V 225 a 1.54,1.54 0 0 1 1.52,-1.54 z" class="cls-2" style="fill:#9bc331"/><path id="path480" d="m 199.36,223.46 h 9.47 a 1.54,1.54 0 0 1 1.54,1.54 v 9.46 a 1.53,1.53 0 0 1 -1.53,1.53 h -9.47 a 1.53,1.53 0 0 1 -1.53,-1.53 V 225 a 1.53,1.53 0 0 1 1.52,-1.54 z" class="cls-2" style="fill:#9bc331"/><path id="path482" d="M 214.58,223.46 H 224 a 1.54,1.54 0 0 1 1.54,1.54 v 9.46 A 1.53,1.53 0 0 1 224,236 h -9.47 A 1.53,1.53 0 0 1 213,234.47 V 225 a 1.53,1.53 0 0 1 1.58,-1.54 z" class="cls-2" style="fill:#9bc331"/><path id="path484" d="m 229.79,223.46 h 9.47 a 1.54,1.54 0 0 1 1.54,1.54 v 9.46 a 1.53,1.53 0 0 1 -1.53,1.53 h -9.47 a 1.53,1.53 0 0 1 -1.53,-1.53 V 225 a 1.53,1.53 0 0 1 1.52,-1.54 z" class="cls-2" style="fill:#9bc331"/><path id="path486" d="m 245,223.46 h 9.47 A 1.54,1.54 0 0 1 256,225 v 9.46 a 1.53,1.53 0 0 1 -1.53,1.53 H 245 a 1.54,1.54 0 0 1 -1.54,-1.54 V 225 a 1.53,1.53 0 0 1 1.54,-1.54 z" class="cls-2" style="fill:#9bc331"/><path id="path488" d="M 351.53,223.46 H 361 a 1.54,1.54 0 0 1 1.54,1.54 v 9.46 A 1.53,1.53 0 0 1 361,236 h -9.47 a 1.54,1.54 0 0 1 -1.54,-1.54 V 225 a 1.54,1.54 0 0 1 1.54,-1.54 z" class="cls-3" style="fill:#ff0005"/><path id="path490" d="m 366.75,223.46 h 9.47 a 1.53,1.53 0 0 1 1.53,1.53 v 9.46 a 1.54,1.54 0 0 1 -1.54,1.54 h -9.47 a 1.53,1.53 0 0 1 -1.53,-1.53 V 225 a 1.53,1.53 0 0 1 1.54,-1.54 z" class="cls-2" style="fill:#9bc331"/><path id="path492" d="m 382,223.46 h 9.47 A 1.54,1.54 0 0 1 393,225 v 9.46 a 1.53,1.53 0 0 1 -1.53,1.53 H 382 a 1.53,1.53 0 0 1 -1.53,-1.53 V 225 a 1.53,1.53 0 0 1 1.53,-1.54 z" class="cls-4" style="fill:#a800fa"/><path id="path494" d="m 397.18,223.46 h 9.47 a 1.54,1.54 0 0 1 1.54,1.54 v 9.46 a 1.53,1.53 0 0 1 -1.53,1.53 h -9.47 a 1.53,1.53 0 0 1 -1.53,-1.53 V 225 a 1.53,1.53 0 0 1 1.52,-1.54 z" class="cls-3" style="fill:#ff0005"/><path id="path496" d="m 412.4,223.46 h 9.47 a 1.54,1.54 0 0 1 1.53,1.54 v 9.46 a 1.53,1.53 0 0 1 -1.53,1.53 h -9.47 a 1.54,1.54 0 0 1 -1.54,-1.54 V 225 a 1.53,1.53 0 0 1 1.54,-1.54 z" class="cls-4" style="fill:#a800fa"/><path id="path498" d="m 62.4,238.36 h 9.47 a 1.54,1.54 0 0 1 1.54,1.54 v 9.46 a 1.53,1.53 0 0 1 -1.53,1.53 H 62.4 a 1.53,1.53 0 0 1 -1.53,-1.53 v -9.46 a 1.53,1.53 0 0 1 1.53,-1.54 z" class="cls-2" style="fill:#9bc331"/><path id="path500" d="m 77.62,238.36 h 9.47 a 1.54,1.54 0 0 1 1.54,1.54 v 9.46 a 1.53,1.53 0 0 1 -1.53,1.53 h -9.48 a 1.53,1.53 0 0 1 -1.53,-1.53 v -9.46 a 1.53,1.53 0 0 1 1.53,-1.54 z" class="cls-2" style="fill:#9bc331"/><path id="path502" d="m 92.84,238.36 h 9.47 a 1.54,1.54 0 0 1 1.54,1.54 v 9.46 a 1.53,1.53 0 0 1 -1.53,1.53 h -9.48 a 1.53,1.53 0 0 1 -1.53,-1.53 v -9.46 a 1.53,1.53 0 0 1 1.53,-1.54 z" class="cls-2" style="fill:#9bc331"/><path id="path504" d="m 108.06,238.36 h 9.47 a 1.53,1.53 0 0 1 1.53,1.53 v 9.47 a 1.53,1.53 0 0 1 -1.53,1.53 h -9.47 a 1.53,1.53 0 0 1 -1.53,-1.53 v -9.46 a 1.54,1.54 0 0 1 1.53,-1.54 z" class="cls-2" style="fill:#9bc331"/><path id="path506" d="m 184.14,238.36 h 9.47 a 1.54,1.54 0 0 1 1.54,1.54 v 9.46 a 1.53,1.53 0 0 1 -1.53,1.53 h -9.47 a 1.53,1.53 0 0 1 -1.53,-1.53 v -9.46 a 1.54,1.54 0 0 1 1.52,-1.54 z" class="cls-2" style="fill:#9bc331"/><rect id="rect508" width="12.54" height="12.53" x="197.82" y="238.36" class="cls-2" rx="1.53" style="fill:#9bc331"/><path id="path510" d="M 214.58,238.36 H 224 a 1.54,1.54 0 0 1 1.54,1.54 v 9.46 A 1.53,1.53 0 0 1 224,250.9 h -9.47 A 1.53,1.53 0 0 1 213,249.37 v -9.47 a 1.53,1.53 0 0 1 1.58,-1.54 z" class="cls-2" style="fill:#9bc331"/><path id="path512" d="m 229.79,238.36 h 9.47 a 1.54,1.54 0 0 1 1.54,1.54 v 9.46 a 1.53,1.53 0 0 1 -1.53,1.53 h -9.47 a 1.53,1.53 0 0 1 -1.53,-1.53 v -9.46 a 1.53,1.53 0 0 1 1.52,-1.54 z" class="cls-2" style="fill:#9bc331"/><path id="path514" d="m 245,238.36 h 9.47 a 1.53,1.53 0 0 1 1.53,1.54 v 9.47 a 1.53,1.53 0 0 1 -1.53,1.53 H 245 a 1.54,1.54 0 0 1 -1.54,-1.54 v -9.46 a 1.54,1.54 0 0 1 1.54,-1.54 z" class="cls-2" style="fill:#9bc331"/><path id="path516" d="M 351.53,238.36 H 361 a 1.54,1.54 0 0 1 1.54,1.54 v 9.46 A 1.53,1.53 0 0 1 361,250.9 h -9.47 a 1.54,1.54 0 0 1 -1.54,-1.54 v -9.46 a 1.53,1.53 0 0 1 1.54,-1.54 z" class="cls-3" style="fill:#ff0005"/><path id="path518" d="m 366.75,238.36 h 9.47 a 1.54,1.54 0 0 1 1.54,1.54 v 9.46 a 1.53,1.53 0 0 1 -1.53,1.53 h -9.47 a 1.53,1.53 0 0 1 -1.53,-1.53 v -9.46 a 1.53,1.53 0 0 1 1.52,-1.54 z" class="cls-4" style="fill:#a800fa"/><path id="path520" d="m 382,238.36 h 9.47 a 1.54,1.54 0 0 1 1.53,1.54 v 9.46 a 1.53,1.53 0 0 1 -1.53,1.53 H 382 a 1.53,1.53 0 0 1 -1.53,-1.53 v -9.46 a 1.53,1.53 0 0 1 1.53,-1.54 z" class="cls-2" style="fill:#9bc331"/><path id="path522" d="m 397.18,238.36 h 9.47 a 1.54,1.54 0 0 1 1.54,1.54 v 9.46 a 1.53,1.53 0 0 1 -1.53,1.53 h -9.47 a 1.53,1.53 0 0 1 -1.53,-1.53 v -9.46 a 1.53,1.53 0 0 1 1.52,-1.54 z" class="cls-2" style="fill:#9bc331"/><path id="path524" d="m 427.91,238.36 h 9.47 a 1.54,1.54 0 0 1 1.54,1.54 v 9.46 a 1.53,1.53 0 0 1 -1.53,1.53 h -9.47 a 1.54,1.54 0 0 1 -1.54,-1.54 v -9.45 a 1.53,1.53 0 0 1 1.53,-1.54 z" class="cls-3" style="fill:#ff0005"/><path id="path526" d="m 62.4,253.26 h 9.47 a 1.54,1.54 0 0 1 1.54,1.54 v 9.46 a 1.53,1.53 0 0 1 -1.53,1.53 H 62.4 a 1.53,1.53 0 0 1 -1.53,-1.53 v -9.47 a 1.53,1.53 0 0 1 1.53,-1.53 z" class="cls-2" style="fill:#9bc331"/><path id="path528" d="m 77.62,253.26 h 9.47 a 1.54,1.54 0 0 1 1.54,1.54 v 9.46 a 1.53,1.53 0 0 1 -1.53,1.53 h -9.48 a 1.53,1.53 0 0 1 -1.53,-1.53 v -9.47 a 1.53,1.53 0 0 1 1.53,-1.53 z" class="cls-2" style="fill:#9bc331"/><path id="path530" d="m 92.84,253.26 h 9.47 a 1.54,1.54 0 0 1 1.54,1.54 v 9.46 a 1.53,1.53 0 0 1 -1.53,1.53 h -9.48 a 1.53,1.53 0 0 1 -1.53,-1.53 v -9.47 a 1.53,1.53 0 0 1 1.53,-1.53 z" class="cls-2" style="fill:#9bc331"/><path id="path532" d="m 108.06,253.26 h 9.47 a 1.54,1.54 0 0 1 1.54,1.54 v 9.46 a 1.53,1.53 0 0 1 -1.53,1.53 h -9.47 a 1.54,1.54 0 0 1 -1.54,-1.54 v -9.47 a 1.53,1.53 0 0 1 1.53,-1.52 z" class="cls-2" style="fill:#9bc331"/><path id="path534" d="m 199.36,253.26 h 9.47 a 1.53,1.53 0 0 1 1.53,1.53 v 9.46 a 1.54,1.54 0 0 1 -1.54,1.54 h -9.47 a 1.53,1.53 0 0 1 -1.53,-1.53 v -9.47 a 1.53,1.53 0 0 1 1.54,-1.53 z" class="cls-2" style="fill:#9bc331"/><path id="path536" d="M 214.58,253.26 H 224 a 1.54,1.54 0 0 1 1.54,1.54 v 9.46 a 1.53,1.53 0 0 1 -1.53,1.53 h -9.47 a 1.53,1.53 0 0 1 -1.53,-1.53 v -9.47 a 1.53,1.53 0 0 1 1.57,-1.53 z" class="cls-2" style="fill:#9bc331"/><path id="path538" d="m 229.79,253.26 h 9.47 a 1.54,1.54 0 0 1 1.54,1.54 v 9.46 a 1.53,1.53 0 0 1 -1.53,1.53 h -9.47 a 1.53,1.53 0 0 1 -1.53,-1.53 v -9.47 a 1.53,1.53 0 0 1 1.52,-1.53 z" class="cls-2" style="fill:#9bc331"/><path id="path540" d="m 245,253.26 h 9.47 a 1.54,1.54 0 0 1 1.53,1.54 v 9.46 a 1.53,1.53 0 0 1 -1.53,1.53 H 245 a 1.54,1.54 0 0 1 -1.54,-1.54 v -9.47 a 1.53,1.53 0 0 1 1.54,-1.52 z" class="cls-2" style="fill:#9bc331"/><path id="path542" d="m 260.23,253.26 h 9.47 a 1.54,1.54 0 0 1 1.54,1.54 v 9.46 a 1.53,1.53 0 0 1 -1.53,1.53 h -9.47 a 1.53,1.53 0 0 1 -1.53,-1.53 v -9.47 a 1.53,1.53 0 0 1 1.52,-1.53 z" class="cls-2" style="fill:#9bc331"/><path id="path544" d="m 336.32,253.26 h 9.47 a 1.54,1.54 0 0 1 1.54,1.54 v 9.46 a 1.53,1.53 0 0 1 -1.53,1.53 h -9.47 a 1.53,1.53 0 0 1 -1.53,-1.53 v -9.47 a 1.53,1.53 0 0 1 1.52,-1.53 z" class="cls-3" style="fill:#ff0005"/><path id="path546" d="M 351.53,253.26 H 361 a 1.54,1.54 0 0 1 1.54,1.54 v 9.46 a 1.53,1.53 0 0 1 -1.53,1.53 h -9.47 A 1.54,1.54 0 0 1 350,264.25 v -9.47 a 1.53,1.53 0 0 1 1.53,-1.52 z" class="cls-2" style="fill:#9bc331"/><path id="path548" d="m 366.75,253.26 h 9.47 a 1.54,1.54 0 0 1 1.54,1.54 v 9.46 a 1.53,1.53 0 0 1 -1.53,1.53 h -9.47 a 1.53,1.53 0 0 1 -1.53,-1.53 v -9.47 a 1.53,1.53 0 0 1 1.52,-1.53 z" class="cls-3" style="fill:#ff0005"/><path id="path550" d="m 455.85,253.26 h 9.47 a 1.54,1.54 0 0 1 1.54,1.54 v 9.46 a 1.53,1.53 0 0 1 -1.53,1.53 h -9.47 a 1.53,1.53 0 0 1 -1.53,-1.53 v -9.47 a 1.53,1.53 0 0 1 1.52,-1.53 z" class="cls-4" style="fill:#a800fa"/><path id="path552" d="m 397.18,253.26 h 9.47 a 1.54,1.54 0 0 1 1.54,1.54 v 9.46 a 1.53,1.53 0 0 1 -1.53,1.53 h -9.47 a 1.53,1.53 0 0 1 -1.53,-1.53 v -9.47 a 1.53,1.53 0 0 1 1.52,-1.53 z" class="cls-4" style="fill:#a800fa"/><path id="path554" d="m 62.4,268.16 h 9.47 a 1.54,1.54 0 0 1 1.54,1.54 v 9.46 a 1.53,1.53 0 0 1 -1.53,1.53 H 62.4 a 1.53,1.53 0 0 1 -1.53,-1.53 v -9.47 a 1.53,1.53 0 0 1 1.53,-1.53 z" class="cls-2" style="fill:#9bc331"/><path id="path556" d="m 77.62,268.16 h 9.47 a 1.54,1.54 0 0 1 1.54,1.54 v 9.46 a 1.53,1.53 0 0 1 -1.53,1.53 h -9.48 a 1.53,1.53 0 0 1 -1.53,-1.53 v -9.47 a 1.53,1.53 0 0 1 1.53,-1.53 z" class="cls-2" style="fill:#9bc331"/><path id="path558" d="m 92.84,268.16 h 9.47 a 1.54,1.54 0 0 1 1.54,1.54 v 9.46 a 1.53,1.53 0 0 1 -1.53,1.53 h -9.48 a 1.53,1.53 0 0 1 -1.53,-1.53 v -9.47 a 1.53,1.53 0 0 1 1.53,-1.53 z" class="cls-2" style="fill:#9bc331"/><rect id="rect560" width="12.54" height="12.53" x="106.52" y="268.16" class="cls-2" rx="1.53" style="fill:#9bc331"/><path id="path562" d="m 199.36,268.16 h 9.47 a 1.54,1.54 0 0 1 1.54,1.54 v 9.46 a 1.53,1.53 0 0 1 -1.53,1.53 h -9.47 a 1.53,1.53 0 0 1 -1.53,-1.53 v -9.47 a 1.53,1.53 0 0 1 1.52,-1.53 z" class="cls-2" style="fill:#9bc331"/><path id="path564" d="M 214.58,268.16 H 224 a 1.54,1.54 0 0 1 1.54,1.54 v 9.46 a 1.53,1.53 0 0 1 -1.53,1.53 h -9.47 a 1.53,1.53 0 0 1 -1.53,-1.53 v -9.47 a 1.53,1.53 0 0 1 1.57,-1.53 z" class="cls-2" style="fill:#9bc331"/><path id="path566" d="m 229.79,268.16 h 9.47 a 1.54,1.54 0 0 1 1.54,1.54 v 9.46 a 1.53,1.53 0 0 1 -1.53,1.53 h -9.47 a 1.53,1.53 0 0 1 -1.53,-1.53 v -9.47 a 1.53,1.53 0 0 1 1.52,-1.53 z" class="cls-2" style="fill:#9bc331"/><path id="path568" d="m 245,268.16 h 9.47 a 1.53,1.53 0 0 1 1.53,1.53 v 9.46 a 1.54,1.54 0 0 1 -1.54,1.54 H 245 a 1.54,1.54 0 0 1 -1.54,-1.54 v -9.46 a 1.54,1.54 0 0 1 1.54,-1.53 z" class="cls-2" style="fill:#9bc331"/><path id="path570" d="m 260.23,268.16 h 9.47 a 1.54,1.54 0 0 1 1.54,1.54 v 9.46 a 1.53,1.53 0 0 1 -1.53,1.53 h -9.47 a 1.53,1.53 0 0 1 -1.53,-1.53 v -9.47 a 1.53,1.53 0 0 1 1.52,-1.53 z" class="cls-2" style="fill:#9bc331"/><path id="path572" d="m 275.45,268.16 h 9.47 a 1.54,1.54 0 0 1 1.54,1.54 v 9.46 a 1.53,1.53 0 0 1 -1.53,1.53 h -9.47 a 1.54,1.54 0 0 1 -1.54,-1.54 v -9.46 a 1.54,1.54 0 0 1 1.53,-1.53 z" class="cls-2" style="fill:#9bc331"/><path id="path574" d="m 290.66,268.16 h 9.47 a 1.54,1.54 0 0 1 1.54,1.54 v 9.46 a 1.53,1.53 0 0 1 -1.53,1.53 h -9.47 a 1.53,1.53 0 0 1 -1.53,-1.53 v -9.47 a 1.53,1.53 0 0 1 1.52,-1.53 z" class="cls-2" style="fill:#9bc331"/><path id="path576" d="m 305.88,268.16 h 9.47 a 1.53,1.53 0 0 1 1.53,1.53 v 9.46 a 1.54,1.54 0 0 1 -1.54,1.54 h -9.47 a 1.53,1.53 0 0 1 -1.53,-1.53 v -9.47 a 1.53,1.53 0 0 1 1.54,-1.53 z" class="cls-2" style="fill:#9bc331"/><path id="path578" d="m 321.1,268.16 h 9.47 a 1.54,1.54 0 0 1 1.54,1.54 v 9.46 a 1.53,1.53 0 0 1 -1.53,1.53 h -9.48 a 1.53,1.53 0 0 1 -1.53,-1.53 v -9.47 a 1.53,1.53 0 0 1 1.53,-1.53 z" class="cls-3" style="fill:#ff0005"/><path id="path580" d="m 336.32,268.16 h 9.47 a 1.54,1.54 0 0 1 1.54,1.54 v 9.46 a 1.53,1.53 0 0 1 -1.53,1.53 h -9.47 a 1.54,1.54 0 0 1 -1.54,-1.54 v -9.47 a 1.53,1.53 0 0 1 1.53,-1.52 z" class="cls-3" style="fill:#ff0005"/><path id="path582" d="M 351.53,268.16 H 361 a 1.54,1.54 0 0 1 1.54,1.54 v 9.46 A 1.54,1.54 0 0 1 361,280.7 h -9.47 a 1.54,1.54 0 0 1 -1.54,-1.54 v -9.47 a 1.53,1.53 0 0 1 1.54,-1.53 z" class="cls-2" style="fill:#9bc331"/><path id="path584" d="m 366.75,268.16 h 9.47 a 1.54,1.54 0 0 1 1.54,1.54 v 9.46 a 1.53,1.53 0 0 1 -1.53,1.53 h -9.47 a 1.53,1.53 0 0 1 -1.53,-1.53 v -9.47 a 1.53,1.53 0 0 1 1.52,-1.53 z" class="cls-4" style="fill:#a800fa"/><path id="path586" d="m 382,268.16 h 9.47 a 1.54,1.54 0 0 1 1.54,1.54 v 9.46 a 1.53,1.53 0 0 1 -1.53,1.53 H 382 a 1.53,1.53 0 0 1 -1.53,-1.53 v -9.47 a 1.53,1.53 0 0 1 1.53,-1.53 z" class="cls-4" style="fill:#a800fa"/><path id="path588" d="m 411.65,268.16 h 9.47 a 1.54,1.54 0 0 1 1.54,1.54 v 9.46 a 1.53,1.53 0 0 1 -1.53,1.53 h -9.47 a 1.53,1.53 0 0 1 -1.53,-1.53 v -9.47 a 1.53,1.53 0 0 1 1.52,-1.53 z" class="cls-4" style="fill:#a800fa"/><path id="path590" d="M 1.53,283.05 H 11 a 1.54,1.54 0 0 1 1.54,1.54 v 9.46 A 1.53,1.53 0 0 1 11,295.59 H 1.54 A 1.54,1.54 0 0 1 0,294.05 v -9.47 a 1.53,1.53 0 0 1 1.53,-1.53 z" class="cls-2" style="fill:#9bc331"/><path id="path592" d="m 16.75,283.05 h 9.47 a 1.54,1.54 0 0 1 1.54,1.54 v 9.46 a 1.53,1.53 0 0 1 -1.53,1.53 h -9.48 a 1.53,1.53 0 0 1 -1.53,-1.53 v -9.47 a 1.53,1.53 0 0 1 1.53,-1.53 z" class="cls-2" style="fill:#9bc331"/><path id="path594" d="m 32,283.05 h 9.47 a 1.54,1.54 0 0 1 1.53,1.54 v 9.46 a 1.53,1.53 0 0 1 -1.53,1.53 H 32 a 1.53,1.53 0 0 1 -1.53,-1.53 v -9.47 A 1.53,1.53 0 0 1 32,283.05 Z" class="cls-2" style="fill:#9bc331"/><path id="path596" d="m 47.19,283.05 h 9.47 a 1.54,1.54 0 0 1 1.54,1.54 v 9.46 a 1.53,1.53 0 0 1 -1.53,1.53 h -9.48 a 1.53,1.53 0 0 1 -1.53,-1.53 v -9.47 a 1.53,1.53 0 0 1 1.53,-1.53 z" class="cls-2" style="fill:#9bc331"/><path id="path598" d="m 62.4,283.05 h 9.47 a 1.54,1.54 0 0 1 1.54,1.54 v 9.46 a 1.53,1.53 0 0 1 -1.53,1.53 H 62.4 a 1.53,1.53 0 0 1 -1.53,-1.53 v -9.47 a 1.53,1.53 0 0 1 1.53,-1.53 z" class="cls-2" style="fill:#9bc331"/><path id="path600" d="m 77.62,283.05 h 9.47 a 1.54,1.54 0 0 1 1.54,1.54 v 9.46 a 1.53,1.53 0 0 1 -1.53,1.53 h -9.48 a 1.53,1.53 0 0 1 -1.53,-1.53 v -9.47 a 1.53,1.53 0 0 1 1.53,-1.53 z" class="cls-2" style="fill:#9bc331"/><path id="path602" d="m 92.84,283.05 h 9.47 a 1.54,1.54 0 0 1 1.54,1.54 v 9.46 a 1.53,1.53 0 0 1 -1.53,1.53 h -9.48 a 1.53,1.53 0 0 1 -1.53,-1.53 v -9.47 a 1.53,1.53 0 0 1 1.53,-1.53 z" class="cls-2" style="fill:#9bc331"/><path id="path604" d="m 108.06,283.05 h 9.47 a 1.54,1.54 0 0 1 1.54,1.54 v 9.46 a 1.53,1.53 0 0 1 -1.53,1.53 h -9.47 a 1.54,1.54 0 0 1 -1.54,-1.54 v -9.47 a 1.53,1.53 0 0 1 1.53,-1.52 z" class="cls-2" style="fill:#9bc331"/><rect id="rect606" width="12.54" height="12.53" x="121.74" y="283.05" class="cls-2" rx="1.53" style="fill:#9bc331"/><path id="path608" d="M 138.49,283.05 H 148 a 1.54,1.54 0 0 1 1.54,1.54 v 9.46 a 1.53,1.53 0 0 1 -1.53,1.53 h -9.47 a 1.53,1.53 0 0 1 -1.53,-1.53 v -9.47 a 1.53,1.53 0 0 1 1.48,-1.53 z" class="cls-2" style="fill:#9bc331"/><path id="path610" d="m 153.71,283.05 h 9.47 a 1.54,1.54 0 0 1 1.54,1.54 v 9.46 a 1.53,1.53 0 0 1 -1.53,1.53 h -9.47 a 1.53,1.53 0 0 1 -1.53,-1.53 v -9.47 a 1.53,1.53 0 0 1 1.52,-1.53 z" class="cls-2" style="fill:#9bc331"/><path id="path612" d="m 168.93,283.05 h 9.47 a 1.54,1.54 0 0 1 1.54,1.54 v 9.46 a 1.53,1.53 0 0 1 -1.53,1.53 h -9.47 a 1.54,1.54 0 0 1 -1.54,-1.54 v -9.47 a 1.53,1.53 0 0 1 1.53,-1.52 z" class="cls-2" style="fill:#9bc331"/><path id="path614" d="M 214.58,283.05 H 224 a 1.54,1.54 0 0 1 1.54,1.54 v 9.46 a 1.53,1.53 0 0 1 -1.53,1.53 h -9.47 a 1.53,1.53 0 0 1 -1.53,-1.53 v -9.47 a 1.53,1.53 0 0 1 1.57,-1.53 z" class="cls-2" style="fill:#9bc331"/><path id="path616" d="m 229.79,283.05 h 9.47 a 1.54,1.54 0 0 1 1.54,1.54 v 9.46 a 1.53,1.53 0 0 1 -1.53,1.53 h -9.47 a 1.53,1.53 0 0 1 -1.53,-1.53 v -9.47 a 1.53,1.53 0 0 1 1.52,-1.53 z" class="cls-2" style="fill:#9bc331"/><path id="path618" d="m 245,283.05 h 9.47 a 1.54,1.54 0 0 1 1.54,1.54 v 9.46 a 1.53,1.53 0 0 1 -1.53,1.53 H 245 a 1.54,1.54 0 0 1 -1.54,-1.54 v -9.47 a 1.53,1.53 0 0 1 1.54,-1.52 z" class="cls-2" style="fill:#9bc331"/><path id="path620" d="m 260.23,283.05 h 9.47 a 1.54,1.54 0 0 1 1.54,1.54 v 9.46 a 1.53,1.53 0 0 1 -1.53,1.53 h -9.47 a 1.53,1.53 0 0 1 -1.53,-1.53 v -9.47 a 1.53,1.53 0 0 1 1.52,-1.53 z" class="cls-2" style="fill:#9bc331"/><path id="path622" d="m 275.45,283.05 h 9.47 a 1.54,1.54 0 0 1 1.54,1.54 v 9.46 a 1.53,1.53 0 0 1 -1.53,1.53 h -9.47 a 1.54,1.54 0 0 1 -1.54,-1.54 v -9.47 a 1.53,1.53 0 0 1 1.53,-1.52 z" class="cls-2" style="fill:#9bc331"/><rect id="rect624" width="12.54" height="12.53" x="289.13" y="283.05" class="cls-2" rx="1.53" style="fill:#9bc331"/><path id="path626" d="m 305.88,283.05 h 9.47 a 1.54,1.54 0 0 1 1.54,1.54 v 9.46 a 1.53,1.53 0 0 1 -1.53,1.53 h -9.47 a 1.53,1.53 0 0 1 -1.53,-1.53 v -9.47 a 1.53,1.53 0 0 1 1.52,-1.53 z" class="cls-3" style="fill:#ff0005"/><path id="path628" d="m 321.1,283.05 h 9.47 a 1.54,1.54 0 0 1 1.54,1.54 v 9.46 a 1.53,1.53 0 0 1 -1.53,1.53 h -9.48 a 1.53,1.53 0 0 1 -1.53,-1.53 v -9.47 a 1.53,1.53 0 0 1 1.53,-1.53 z" class="cls-2" style="fill:#9bc331"/><path id="path630" d="m 336.32,283.05 h 9.47 a 1.54,1.54 0 0 1 1.54,1.54 v 9.46 a 1.53,1.53 0 0 1 -1.53,1.53 h -9.47 a 1.54,1.54 0 0 1 -1.54,-1.54 v -9.47 a 1.53,1.53 0 0 1 1.53,-1.52 z" class="cls-4" style="fill:#a800fa"/><path id="path632" d="M 351.53,283.05 H 361 a 1.54,1.54 0 0 1 1.54,1.54 v 9.46 a 1.53,1.53 0 0 1 -1.53,1.53 h -9.47 A 1.54,1.54 0 0 1 350,294.04 v -9.47 a 1.53,1.53 0 0 1 1.53,-1.52 z" class="cls-3" style="fill:#ff0005"/><path id="path634" d="m 427.87,283.05 h 9.47 a 1.54,1.54 0 0 1 1.54,1.54 v 9.46 a 1.53,1.53 0 0 1 -1.53,1.53 h -9.47 a 1.53,1.53 0 0 1 -1.53,-1.53 v -9.47 a 1.53,1.53 0 0 1 1.52,-1.53 z" class="cls-4" style="fill:#a800fa"/><path id="path636" d="m 382,283.05 h 9.47 a 1.54,1.54 0 0 1 1.54,1.54 v 9.46 a 1.53,1.53 0 0 1 -1.53,1.53 H 382 a 1.53,1.53 0 0 1 -1.53,-1.53 v -9.47 a 1.53,1.53 0 0 1 1.53,-1.53 z" class="cls-4" style="fill:#a800fa"/><path id="path638" d="M 1.53,298 H 11 a 1.54,1.54 0 0 1 1.54,1.54 V 309 A 1.53,1.53 0 0 1 11,310.49 H 1.54 A 1.54,1.54 0 0 1 0,309 v -9.47 A 1.53,1.53 0 0 1 1.53,298 Z" class="cls-2" style="fill:#9bc331"/><path id="path640" d="m 16.75,298 h 9.47 a 1.54,1.54 0 0 1 1.54,1.54 V 309 a 1.53,1.53 0 0 1 -1.53,1.53 H 16.75 A 1.53,1.53 0 0 1 15.22,309 v -9.47 A 1.53,1.53 0 0 1 16.75,298 Z" class="cls-2" style="fill:#9bc331"/><path id="path642" d="m 32,298 h 9.47 A 1.54,1.54 0 0 1 43,299.49 V 309 a 1.53,1.53 0 0 1 -1.53,1.53 H 32 A 1.53,1.53 0 0 1 30.43,309 v -9.47 A 1.53,1.53 0 0 1 32,298 Z" class="cls-2" style="fill:#9bc331"/><path id="path644" d="m 47.19,298 h 9.47 a 1.54,1.54 0 0 1 1.54,1.54 V 309 a 1.53,1.53 0 0 1 -1.53,1.53 H 47.19 A 1.53,1.53 0 0 1 45.65,309 v -9.47 A 1.53,1.53 0 0 1 47.19,298 Z" class="cls-2" style="fill:#9bc331"/><path id="path646" d="m 62.4,298 h 9.47 a 1.54,1.54 0 0 1 1.54,1.54 V 309 a 1.53,1.53 0 0 1 -1.53,1.53 H 62.4 A 1.53,1.53 0 0 1 60.87,309 v -9.47 A 1.53,1.53 0 0 1 62.4,298 Z" class="cls-2" style="fill:#9bc331"/><path id="path648" d="m 77.62,298 h 9.47 a 1.54,1.54 0 0 1 1.54,1.54 V 309 a 1.53,1.53 0 0 1 -1.53,1.53 H 77.62 A 1.53,1.53 0 0 1 76.09,309 v -9.47 A 1.53,1.53 0 0 1 77.62,298 Z" class="cls-2" style="fill:#9bc331"/><path id="path650" d="m 92.84,298 h 9.47 a 1.54,1.54 0 0 1 1.54,1.54 V 309 a 1.53,1.53 0 0 1 -1.53,1.53 H 92.84 A 1.53,1.53 0 0 1 91.3,309 v -9.47 A 1.53,1.53 0 0 1 92.84,298 Z" class="cls-2" style="fill:#9bc331"/><path id="path652" d="m 108.06,298 h 9.47 a 1.54,1.54 0 0 1 1.54,1.54 V 309 a 1.53,1.53 0 0 1 -1.53,1.53 h -9.47 a 1.54,1.54 0 0 1 -1.54,-1.54 v -9.47 a 1.53,1.53 0 0 1 1.53,-1.52 z" class="cls-2" style="fill:#9bc331"/><path id="path654" d="m 123.27,298 h 9.47 a 1.54,1.54 0 0 1 1.54,1.54 V 309 a 1.53,1.53 0 0 1 -1.53,1.53 h -9.47 A 1.53,1.53 0 0 1 121.75,309 v -9.47 a 1.53,1.53 0 0 1 1.52,-1.53 z" class="cls-2" style="fill:#9bc331"/><path id="path656" d="M 138.49,298 H 148 a 1.54,1.54 0 0 1 1.54,1.54 V 309 a 1.53,1.53 0 0 1 -1.53,1.53 h -9.47 A 1.53,1.53 0 0 1 137,309 v -9.47 a 1.53,1.53 0 0 1 1.49,-1.53 z" class="cls-2" style="fill:#9bc331"/><path id="path658" d="m 153.71,298 h 9.47 a 1.54,1.54 0 0 1 1.54,1.54 V 309 a 1.53,1.53 0 0 1 -1.53,1.53 h -9.47 A 1.53,1.53 0 0 1 152.19,309 v -9.47 a 1.53,1.53 0 0 1 1.52,-1.53 z" class="cls-2" style="fill:#9bc331"/><path id="path660" d="m 168.93,298 h 9.47 a 1.54,1.54 0 0 1 1.54,1.54 V 309 a 1.53,1.53 0 0 1 -1.53,1.53 h -9.47 a 1.54,1.54 0 0 1 -1.54,-1.54 v -9.47 a 1.53,1.53 0 0 1 1.53,-1.52 z" class="cls-2" style="fill:#9bc331"/><path id="path662" d="m 229.79,298 h 9.47 a 1.54,1.54 0 0 1 1.54,1.54 V 309 a 1.53,1.53 0 0 1 -1.53,1.53 H 229.8 A 1.53,1.53 0 0 1 228.27,309 v -9.47 a 1.53,1.53 0 0 1 1.52,-1.53 z" class="cls-2" style="fill:#9bc331"/><path id="path664" d="m 245,298 h 9.47 a 1.54,1.54 0 0 1 1.54,1.54 V 309 a 1.53,1.53 0 0 1 -1.53,1.53 H 245 a 1.54,1.54 0 0 1 -1.54,-1.54 v -9.47 A 1.53,1.53 0 0 1 245,298 Z" class="cls-2" style="fill:#9bc331"/><path id="path666" d="m 260.23,298 h 9.47 a 1.54,1.54 0 0 1 1.54,1.54 V 309 a 1.53,1.53 0 0 1 -1.53,1.53 h -9.47 A 1.53,1.53 0 0 1 258.71,309 v -9.47 a 1.53,1.53 0 0 1 1.52,-1.53 z" class="cls-2" style="fill:#9bc331"/><path id="path668" d="m 275.45,298 h 9.47 a 1.54,1.54 0 0 1 1.54,1.54 V 309 a 1.53,1.53 0 0 1 -1.53,1.53 h -9.47 a 1.54,1.54 0 0 1 -1.54,-1.54 v -9.47 a 1.53,1.53 0 0 1 1.53,-1.52 z" class="cls-2" style="fill:#9bc331"/><path id="path670" d="m 290.66,298 h 9.47 a 1.54,1.54 0 0 1 1.54,1.54 V 309 a 1.53,1.53 0 0 1 -1.53,1.53 h -9.47 A 1.53,1.53 0 0 1 289.14,309 v -9.47 a 1.53,1.53 0 0 1 1.52,-1.53 z" class="cls-2" style="fill:#9bc331"/><path id="path672" d="m 305.88,298 h 9.47 a 1.54,1.54 0 0 1 1.54,1.54 V 309 a 1.53,1.53 0 0 1 -1.53,1.53 h -9.47 A 1.53,1.53 0 0 1 304.36,309 v -9.47 a 1.53,1.53 0 0 1 1.52,-1.53 z" class="cls-2" style="fill:#9bc331"/><path id="path674" d="m 321.1,298 h 9.47 a 1.54,1.54 0 0 1 1.54,1.54 V 309 a 1.53,1.53 0 0 1 -1.53,1.53 H 321.1 A 1.53,1.53 0 0 1 319.57,309 v -9.47 A 1.53,1.53 0 0 1 321.1,298 Z" class="cls-3" style="fill:#ff0005"/><path id="path676" d="m 336.32,298 h 9.47 a 1.54,1.54 0 0 1 1.54,1.54 V 309 a 1.53,1.53 0 0 1 -1.53,1.53 h -9.47 a 1.54,1.54 0 0 1 -1.54,-1.54 v -9.47 a 1.53,1.53 0 0 1 1.53,-1.52 z" class="cls-2" style="fill:#9bc331"/><path id="path678" d="M 351.53,298 H 361 a 1.54,1.54 0 0 1 1.54,1.54 V 309 a 1.53,1.53 0 0 1 -1.53,1.53 h -9.47 A 1.54,1.54 0 0 1 350,309 v -9.47 a 1.53,1.53 0 0 1 1.53,-1.53 z" class="cls-2" style="fill:#9bc331"/><path id="path680" d="m 366.75,298 h 9.47 a 1.54,1.54 0 0 1 1.54,1.54 V 309 a 1.53,1.53 0 0 1 -1.53,1.53 h -9.47 A 1.53,1.53 0 0 1 365.23,309 v -9.47 a 1.53,1.53 0 0 1 1.52,-1.53 z" class="cls-2" style="fill:#9bc331"/><path id="path682" d="M 1.53,312.85 H 11 a 1.53,1.53 0 0 1 1.53,1.53 v 9.47 A 1.53,1.53 0 0 1 11,325.38 H 1.54 A 1.54,1.54 0 0 1 0,323.85 v -9.47 a 1.53,1.53 0 0 1 1.53,-1.53 z" class="cls-2" style="fill:#9bc331"/><path id="path684" d="m 16.75,312.85 h 9.47 a 1.54,1.54 0 0 1 1.54,1.54 v 9.46 a 1.53,1.53 0 0 1 -1.53,1.53 h -9.48 a 1.53,1.53 0 0 1 -1.53,-1.53 v -9.47 a 1.53,1.53 0 0 1 1.53,-1.53 z" class="cls-2" style="fill:#9bc331"/><path id="path686" d="m 32,312.85 h 9.47 a 1.54,1.54 0 0 1 1.53,1.54 v 9.46 a 1.53,1.53 0 0 1 -1.53,1.53 H 32 a 1.53,1.53 0 0 1 -1.53,-1.53 v -9.47 A 1.53,1.53 0 0 1 32,312.85 Z" class="cls-2" style="fill:#9bc331"/><path id="path688" d="m 47.19,312.85 h 9.47 a 1.54,1.54 0 0 1 1.54,1.54 v 9.46 a 1.53,1.53 0 0 1 -1.53,1.53 h -9.48 a 1.53,1.53 0 0 1 -1.53,-1.53 v -9.47 a 1.53,1.53 0 0 1 1.53,-1.53 z" class="cls-2" style="fill:#9bc331"/><path id="path690" d="m 62.4,312.85 h 9.47 a 1.54,1.54 0 0 1 1.54,1.54 v 9.46 a 1.53,1.53 0 0 1 -1.53,1.53 H 62.4 a 1.53,1.53 0 0 1 -1.53,-1.53 v -9.47 a 1.53,1.53 0 0 1 1.53,-1.53 z" class="cls-2" style="fill:#9bc331"/><path id="path692" d="m 77.62,312.85 h 9.47 a 1.54,1.54 0 0 1 1.54,1.54 v 9.46 a 1.53,1.53 0 0 1 -1.53,1.53 h -9.48 a 1.53,1.53 0 0 1 -1.53,-1.53 v -9.47 a 1.53,1.53 0 0 1 1.53,-1.53 z" class="cls-2" style="fill:#9bc331"/><rect id="rect694" width="12.54" height="12.53" x="91.3" y="312.85" class="cls-2" rx="1.53" style="fill:#9bc331"/><path id="path696" d="m 108.06,312.85 h 9.47 a 1.54,1.54 0 0 1 1.54,1.54 v 9.46 a 1.53,1.53 0 0 1 -1.53,1.53 h -9.47 a 1.53,1.53 0 0 1 -1.53,-1.53 v -9.46 a 1.54,1.54 0 0 1 1.52,-1.54 z" class="cls-2" style="fill:#9bc331"/><path id="path698" d="m 123.27,312.85 h 9.47 a 1.53,1.53 0 0 1 1.53,1.53 v 9.46 a 1.54,1.54 0 0 1 -1.54,1.54 h -9.47 a 1.53,1.53 0 0 1 -1.53,-1.53 v -9.47 a 1.53,1.53 0 0 1 1.54,-1.53 z" class="cls-2" style="fill:#9bc331"/><path id="path700" d="M 138.49,312.85 H 148 a 1.54,1.54 0 0 1 1.54,1.54 v 9.46 a 1.53,1.53 0 0 1 -1.53,1.53 h -9.47 a 1.53,1.53 0 0 1 -1.53,-1.53 v -9.47 a 1.53,1.53 0 0 1 1.48,-1.53 z" class="cls-2" style="fill:#9bc331"/><path id="path702" d="m 153.71,312.85 h 9.47 a 1.54,1.54 0 0 1 1.54,1.54 v 9.46 a 1.53,1.53 0 0 1 -1.53,1.53 h -9.47 a 1.53,1.53 0 0 1 -1.53,-1.53 v -9.47 a 1.53,1.53 0 0 1 1.52,-1.53 z" class="cls-2" style="fill:#9bc331"/><path id="path704" d="m 168.93,312.85 h 9.47 a 1.53,1.53 0 0 1 1.53,1.53 v 9.47 a 1.53,1.53 0 0 1 -1.53,1.53 h -9.47 a 1.54,1.54 0 0 1 -1.54,-1.54 v -9.47 a 1.53,1.53 0 0 1 1.54,-1.52 z" class="cls-2" style="fill:#9bc331"/><path id="path706" d="m 245,312.85 h 9.47 a 1.54,1.54 0 0 1 1.54,1.54 v 9.46 a 1.53,1.53 0 0 1 -1.53,1.53 H 245 a 1.54,1.54 0 0 1 -1.54,-1.54 v -9.47 a 1.53,1.53 0 0 1 1.54,-1.52 z" class="cls-2" style="fill:#9bc331"/><path id="path708" d="m 260.23,312.85 h 9.47 a 1.54,1.54 0 0 1 1.54,1.54 v 9.46 a 1.53,1.53 0 0 1 -1.53,1.53 h -9.47 a 1.53,1.53 0 0 1 -1.53,-1.53 v -9.47 a 1.53,1.53 0 0 1 1.52,-1.53 z" class="cls-2" style="fill:#9bc331"/><path id="path710" d="m 275.45,312.85 h 9.47 a 1.53,1.53 0 0 1 1.53,1.53 v 9.47 a 1.53,1.53 0 0 1 -1.53,1.53 h -9.47 a 1.54,1.54 0 0 1 -1.54,-1.54 v -9.47 a 1.53,1.53 0 0 1 1.54,-1.52 z" class="cls-2" style="fill:#9bc331"/><path id="path712" d="m 290.66,312.85 h 9.47 a 1.53,1.53 0 0 1 1.53,1.53 v 9.46 a 1.54,1.54 0 0 1 -1.54,1.54 h -9.47 a 1.53,1.53 0 0 1 -1.53,-1.53 v -9.47 a 1.53,1.53 0 0 1 1.54,-1.53 z" class="cls-2" style="fill:#9bc331"/><path id="path714" d="m 305.88,312.85 h 9.47 a 1.54,1.54 0 0 1 1.54,1.54 v 9.46 a 1.53,1.53 0 0 1 -1.53,1.53 h -9.47 a 1.53,1.53 0 0 1 -1.53,-1.53 v -9.47 a 1.53,1.53 0 0 1 1.52,-1.53 z" class="cls-2" style="fill:#9bc331"/><path id="path716" d="m 321.1,312.85 h 9.47 a 1.54,1.54 0 0 1 1.54,1.54 v 9.46 a 1.53,1.53 0 0 1 -1.53,1.53 h -9.48 a 1.53,1.53 0 0 1 -1.53,-1.53 v -9.47 a 1.53,1.53 0 0 1 1.53,-1.53 z" class="cls-2" style="fill:#9bc331"/><path id="path718" d="m 336.32,312.85 h 9.47 a 1.54,1.54 0 0 1 1.54,1.54 v 9.46 a 1.53,1.53 0 0 1 -1.53,1.53 h -9.47 a 1.54,1.54 0 0 1 -1.54,-1.54 v -9.47 a 1.53,1.53 0 0 1 1.53,-1.52 z" class="cls-3" style="fill:#ff0005"/><path id="path720" d="M 351.53,312.85 H 361 a 1.54,1.54 0 0 1 1.54,1.54 v 9.46 a 1.53,1.53 0 0 1 -1.53,1.53 h -9.47 A 1.54,1.54 0 0 1 350,323.84 v -9.47 a 1.53,1.53 0 0 1 1.53,-1.52 z" class="cls-2" style="fill:#9bc331"/></g></svg>