<svg xmlns="http://www.w3.org/2000/svg" id="DSRots" data-name="Layer 1" viewBox="0 0 50 50"><defs><style>.cls-1,.cls-2{fill:none;stroke:#000;stroke-miterlimit:10}.cls-2{fill:#fff}</style></defs><title>DeveloperServices-icons</title><line x1="37.5" x2="35.42" y1="30.56" y2="30.56" class="cls-1"/><line x1="37.5" x2="35.42" y1="27.78" y2="27.78" class="cls-1"/><line x1="37.5" x2="35.42" y1="25" y2="25" class="cls-1"/><line x1="37.5" x2="35.42" y1="22.22" y2="22.22" class="cls-1"/><line x1="37.5" x2="35.42" y1="19.44" y2="19.44" class="cls-1"/><line x1="14.58" x2="12.5" y1="30.56" y2="30.56" class="cls-1"/><line x1="14.58" x2="12.5" y1="27.78" y2="27.78" class="cls-1"/><line x1="14.58" x2="12.5" y1="25" y2="25" class="cls-1"/><line x1="14.58" x2="12.5" y1="22.22" y2="22.22" class="cls-1"/><line x1="14.58" x2="12.5" y1="19.44" y2="19.44" class="cls-1"/><line x1="19.44" x2="19.44" y1="37.5" y2="35.42" class="cls-1"/><line x1="22.22" x2="22.22" y1="37.5" y2="35.42" class="cls-1"/><line x1="25" x2="25" y1="37.5" y2="35.42" class="cls-1"/><line x1="27.78" x2="27.78" y1="37.5" y2="35.42" class="cls-1"/><line x1="30.56" x2="30.56" y1="37.5" y2="35.42" class="cls-1"/><line x1="19.44" x2="19.44" y1="14.58" y2="12.5" class="cls-1"/><line x1="22.22" x2="22.22" y1="14.58" y2="12.5" class="cls-1"/><line x1="25" x2="25" y1="14.58" y2="12.5" class="cls-1"/><line x1="27.78" x2="27.78" y1="14.58" y2="12.5" class="cls-1"/><line x1="30.56" x2="30.56" y1="14.58" y2="12.5" class="cls-1"/><rect width="16.67" height="16.67" x="16.67" y="16.67" class="cls-1"/><rect width="5.56" height="5.56" x="22.22" y="22.22" class="cls-2"/><line x1="19.44" x2="19.44" y1="21.53" y2="22.92" class="cls-1"/><line x1="19.44" x2="19.44" y1="24.31" y2="25.69" class="cls-1"/><line x1="19.44" x2="19.44" y1="27.08" y2="28.47" class="cls-1"/><line x1="30.56" x2="30.56" y1="21.53" y2="22.92" class="cls-1"/><line x1="30.56" x2="30.56" y1="24.31" y2="25.69" class="cls-1"/><line x1="30.56" x2="30.56" y1="27.08" y2="28.47" class="cls-1"/></svg>