<svg xmlns="http://www.w3.org/2000/svg" id="DSBuilds" data-name="Layer 1" viewBox="0 0 50 50"><defs><style>.cls-1{fill:none;stroke:#000;stroke-miterlimit:10;stroke-width:1.5px}</style></defs><title>DeveloperServices-icons</title><path d="M22.39,22.39l-12.2,12.2a.65.65,0,0,0,0,.92l1.69,1.69a.65.65,0,0,0,.92,0L25,25" class="cls-1"/><path d="M28.55,26.7c-.3-.3.26-1.59-.46-2.31-.53-.53-1.71-.78-3.09.6l-2.61-2.61s1.32-2.37.17-3.53a5.46,5.46,0,0,0-3.43-1.69v-2c1.79,0,5.24-.07,7.12,1.8L29,19.79c.69.69.28,2.12.92,2.77.81.81,2,.13,2.77.92l1.38,1.38L30.4,28.55Z" class="cls-1"/><line x1="40" x2="28.26" y1="16.52" y2="16.52" class="cls-1"/><line x1="38.04" x2="36.74" y1="14.57" y2="14.57" class="cls-1"/><line x1="35.43" x2="34.13" y1="14.57" y2="14.57" class="cls-1"/><line x1="32.83" x2="31.52" y1="14.57" y2="14.57" class="cls-1"/><polyline points="13.26 28.91 13.26 12.61 40 12.61 40 33.48 19.13 33.48" class="cls-1"/><line x1="13.26" x2="17.17" y1="16.52" y2="16.52" class="cls-1"/></svg>