<svg xmlns="http://www.w3.org/2000/svg" id="DSToolchain" data-name="Layer 1" viewBox="0 0 50 50"><defs><style>.cls-1{fill:none;stroke:#000;stroke-miterlimit:10;stroke-width:1.5px}</style></defs><title>DeveloperServices-icons</title><path d="M28.41,36.93v-2h-1.6a4.55,4.55,0,0,0-.62-1.51l1.61-1.61-2.41-2.41L23.78,31a6.43,6.43,0,0,0-1.51-.62V28.07H18.86v2.28a6.43,6.43,0,0,0-1.51.62l-1.61-1.61-2.41,2.41,1.61,1.61a4.55,4.55,0,0,0-.62,1.51h-1.6v2" class="cls-1"/><path d="M18.22,36.93a2.39,2.39,0,0,1,4.77,0" class="cls-1"/><path d="M38,19.2h-2v1.6a4.55,4.55,0,0,0-1.51.62l-1.61-1.61-2.41,2.41L32,23.83a4.55,4.55,0,0,0-.62,1.51H29.09v3.41h2A7.24,7.24,0,0,0,32,30.26l-1.61,1.61,2.41,2.41,1.61-1.61a4.55,4.55,0,0,0,1.51.62v1.6h2" class="cls-1"/><path d="M38,29.39a2.39,2.39,0,0,1,0-4.77" class="cls-1"/><rect width="30" height="27.95" x="10" y="11.02" class="cls-1"/><line x1="10" x2="40" y1="15.11" y2="15.11" class="cls-1"/><line x1="12.05" x2="13.41" y1="13.07" y2="13.07" class="cls-1"/><line x1="14.77" x2="16.14" y1="13.07" y2="13.07" class="cls-1"/><line x1="17.5" x2="18.86" y1="13.07" y2="13.07" class="cls-1"/></svg>