<svg xmlns="http://www.w3.org/2000/svg" id="LinaroSprinkle" data-name="Layer 1" viewBox="0 0 500 500"><defs><style>.cls-1,.cls-6{fill:#9c3}.cls-2,.cls-3{fill:#c03}.cls-3{opacity:.6}.cls-4,.cls-5{fill:#909}.cls-5,.cls-6{opacity:.7}</style></defs><title>Linaro-Logo</title><path d="m454.13 73.48h-128.7a20.88 20.88 0 0 0 -20.89 20.87v128.65a20.88 20.88 0 0 0 20.89 20.87h128.7a20.87 20.87 0 0 0 20.87 -20.87v-128.65a20.86 20.86 0 0 0 -20.87 -20.87z" class="cls-1"/><path d="m186.6 73.22h-107.91a17.5 17.5 0 0 0 -17.51 17.49v107.91a17.51 17.51 0 0 0 17.51 17.5h107.91a17.5 17.5 0 0 0 17.5 -17.5v-107.91a17.49 17.49 0 0 0 -17.5 -17.49z" class="cls-2"/><path d="m212.13 310.22h-88a14.28 14.28 0 0 0 -14.28 14.27v88a14.28 14.28 0 0 0 14.28 14.27h88a14.27 14.27 0 0 0 14.27 -14.27v-88a14.27 14.27 0 0 0 -14.27 -14.27z" class="cls-3"/><path d="m279.7 73.41h-36.89a6 6 0 0 0 -6 6v36.89a6 6 0 0 0 6 6h36.89a6 6 0 0 0 6 -6v-36.91a6 6 0 0 0 -6 -5.98z" class="cls-4"/><path d="m349.44 159h-152.05a24.67 24.67 0 0 0 -24.68 24.65v152.05a24.67 24.67 0 0 0 24.68 24.66h152.05a24.65 24.65 0 0 0 24.66 -24.66v-152.06a24.65 24.65 0 0 0 -24.66 -24.64z" class="cls-5"/><path d="m86.83 109.43h-53.2a8.63 8.63 0 0 0 -8.63 8.63v53.2a8.63 8.63 0 0 0 8.63 8.63h53.2a8.63 8.63 0 0 0 8.63 -8.63v-53.2a8.62 8.62 0 0 0 -8.63 -8.63z" class="cls-6"/></svg>